<?xml version="1.0" encoding="UTF-8"?>
<svg id="Layer_1" data-name="Layer 1" xmlns="http://www.w3.org/2000/svg" xmlns:xlink="http://www.w3.org/1999/xlink" viewBox="0 0 5000 5000">
  <defs>
    <style>
      .cls-1 {
        fill: none;
      }

      .cls-2 {
        fill: #45c7f0;
      }

      .cls-3 {
        fill: #f04d52;
      }

      .cls-4 {
        fill: #f15a5f;
      }

      .cls-5 {
        fill: #e5242e;
      }

      .cls-6 {
        fill: #111110;
      }

      .cls-7 {
        clip-path: url(#clippath);
      }
    </style>
    <clipPath id="clippath">
      <rect class="cls-1" x="2240.29" y="1847.32" width="406.67" height="500"/>
    </clipPath>
  </defs>
  <path class="cls-6" d="M4824.02,1159.43l.11.03"/>
  <g class="cls-7">
    <g>
      <path class="cls-5" d="M2503.53,2018.8c33.72-6.91,67.78-17.11,101.33-25.4,5.07-1.25,33.79-10.99,37.13-10.23.51,1.52.13,3.92-.01,5.62-10.06,8.79-19.11,16.92-28.58,26.57-9.59,9.79-19.34,20.54-29,30.06l-46.63,47.33c-4.49,4.57-9.4,9.1-13.79,13.66,22.13,26.26,44.25,52.64,66.07,79.22,2.85,3.47,5.38,7.34,8.27,10.83l21.54,25.66c3.55,4.25,9.3,9.54,11.47,14.59-.08,1.02-.01,1.26-.59,1.98-3.5.5-25.68-10.42-31.69-12.03-17.76-4.76-34.51-13.92-51.54-20.78-22.01-8.87-44.53-15.89-65.54-27.74-6.32,28.56-12.32,57.55-19.73,85.83-1.29,4.91-2.5,9.98-3.6,14.94l-9.29,41.87c-1.31,5.91-4.48,21.38-6.65,26.54h-2.59c-.96-9.02-3.06-16.26-4.82-24.93-2.17-9.68-3.54-20.33-6.09-29.85-10.03-37.39-17.26-75.67-27.57-112.94-5.98,3.32-12.59,5.7-18.85,8.3-13.55,6.22-28.65,9.54-42.14,15.54-25.53,11.36-51.33,20.53-77.26,30.47-5.01,1.92-8.78,3.99-14.11,4.96,3.43-8.55,8.29-11.08,13.74-17.63l40.12-48.23,26.18-32.07c9.23-11.52,18.98-24.01,29.31-34.23-2.88-2.69-6.7-7.45-9.86-10.68l-26.65-26.85c-9.21-9.44-21.87-20.96-30.9-30.49-8.06-8.51-42.37-46.67-50.91-49.87v-4.61c12.37.78,24.56,5.97,36.57,9.2,12.15,3.27,24.04,6.17,36.18,9.6,20.94,5.92,42.52,9.12,63.51,15.06,4.06,1.15,7.67,2.06,11.7,3.58,1.89.71,8.02,3.92,9.32,4.14.43.49.44.48.98.82.81-1.43,2.63-7.63,3.22-9.5,1.45.05,2.8-.37,4.19-.8,7.44-2.26,15.62.28,22.88,1.91,16.57,3.71,32.24,8.03,49.28,5.92.33-.04.67-1.09,1.98-1.21.89,1.33,1.73,3.11,3.26,3.1.87-.86.95-1.98,1.19-3.25.45.21.9.41,1.34.62,5.85-1.7,11.74-3.08,17.62-4.61Z"/>
      <path class="cls-3" d="M2503.53,2018.8c33.72-6.91,67.78-17.11,101.33-25.4,5.07-1.25,33.79-10.99,37.13-10.23.51,1.52.13,3.92-.01,5.62-10.06,8.79-19.11,16.92-28.58,26.57-9.59,9.79-19.34,20.54-29,30.06l-1.17-.52c-.42-1.43-.17-1.3.35-3.06-.67-.9-8.9,1.4-11.8,0-1.51-.73-6.78-2.61-8.3-2.98-10.93-2.65-21.97-4.68-32.95-6.98-5.72-1.33-10.68-4.75-16.28-6.34-2.05-.59-4.67-1.23-5.68-3.44-3.56-1.15-3.1.57-5.04-3.28Z"/>
      <path class="cls-4" d="M2397.57,2025.81c.65-2.95,2.85-7.36,3.69-10.87,10.68-44.67,21.33-89.26,31.72-134.02,1.07-4.61,4.9-25.99,6.62-29.16l.84.23c1.44,1.45,2.48,4.32,3.03,6.43,6.21,23.83,11.71,48.13,17.87,71.94,6.36,24.59,13.69,48.93,18.65,73.96,1.21,6.11,3.6,12.51,4.56,18.47-.24,1.26-.32,2.39-1.19,3.25-1.53.01-2.37-1.77-3.26-3.1-1.32.12-1.65,1.17-1.98,1.21-17.05,2.11-32.71-2.21-49.28-5.92-7.26-1.62-15.44-4.16-22.88-1.91-1.39.43-2.74.85-4.19.8-.59,1.88-2.41,8.08-3.22,9.5-.54-.34-.55-.32-.98-.82Z"/>
    </g>
  </g>
  <g>
    <path class="cls-2" d="M2108.36,1016.41c.4-.23.92-.08,1.17.32l1.73,2.9c.26.45.12,1.02-.34,1.34l-288.23,185.73c-.38.21-.51.66-.29,1.02.16.27.47.41.79.37,78.43-6.33,157.22-3.84,236.36,7.45,23.7,3.4,46.95,8.49,69.75,15.29,1.76.52,3.66.36,5.31-.43,17.14-8.19,41.94-19.4,74.39-33.63,47.4-20.7,105.11-45.75,173.15-75.14,33.46-14.44,71.74-30.5,114.85-48.16,1.9-.75,3.52-1.11,4.86-1.07.68.03,1.2.58,1.17,1.23-.02.4-.25.76-.61.96l-311.59,172.8c-.3.18-.56.38-.78.59-11.96,10.08-29.45,14.11-42.81,24.19-12.58,9.55-28.28,13.73-43.43,24.24-9.67,6.76-24.48,10.46-34.32,18.29-11.51,9.12-28.84,13.62-42.14,23.54-8.1,6.01-19,9.33-29.62,15.34-31.75,17.91-51.31,29.01-58.68,33.31-1.59.89-3.31,1.52-5.09,1.88-23.14,4.51-51.44,6.15-84.9,4.93-2.99-.12-5.52,2.11-5.64,4.98,0,.07,0,.15,0,.22v34.43c0,3.26-1.8,6.3-4.75,7.99-34.84,20.02-64.01,36.27-87.52,48.75-23.06,12.23-43,23.19-59.8,32.88-24.26,13.98-49.22,26.46-74.89,37.43-.92.41-2.02,0-2.45-.91-.11-.24-.17-.49-.17-.75v-225.2c0-.8-.69-1.44-1.56-1.43-.3,0-.59.09-.85.25l-92.11,59.32c-.95.63-2.06.97-3.19.97h-92.72c-1.33-.03-2.38-1.08-2.35-2.35.02-.8.46-1.53,1.18-1.94l686.11-371.94Z"/>
    <path class="cls-2" d="M2547.21,1856.44c-16.62-21.17-30.31-46.78-41.08-76.85-25.19-70.65-33.29-143.79-24.31-219.41.37-3.15,3.02-8.04,7.94-14.7.81-1.1,1.84-2.03,3.02-2.74,9-5.09,17.38-13.46,28.5-20.33,29.14-17.98,53.13-33.57,71.99-46.77,63.83-44.66,128.18-86.15,193.05-124.48,67.37-39.79,134.79-78.34,202.27-115.63,140.36-77.62,261.6-145.04,363.73-202.24.81-.46,1.84-.22,2.35.54l1.06,1.5c.56.82.32,1.91-.53,2.45,0,0-.02.01-.03.02l-274.09,172.75c-1.08.69-1.36,2.09-.64,3.13.3.43.74.74,1.26.9,7.3,1.97,20.57,5.97,39.79,12.01,10.69,3.4,20.7,7.4,30.01,12.01,18.7,9.22,28.54,13.98,29.51,14.27,1.82.75,3.6,1.61,5.31,2.57l28.45,16.3c.55.32,1.05.74,1.45,1.23,3.91,4.4,7.66,6.88,11.23,7.45,2,.35,3.82,1.33,5.2,2.79,5.63,6.11,10.92,9.9,15.87,11.37,1.12.35,1.73,1.5,1.36,2.57-.09.26-.23.5-.41.7-1.16,1.29-2.83,2.86-5.03,4.72-5.03,4.18-3.74,10.14-9.11,14.21-6.93,5.31-6.15,13.25-13.92,18.88-1.51,1.11-2.55,2.73-2.91,4.56-1.12,6.01-9,12.12-13.53,18.4-18.44,25.74-39.72,54.78-63.83,87.1-.55.71-.97,1.51-1.23,2.36-1.53,4.68-4.47,8.62-8.83,11.8-1.67,1.21-3.96,1.23-5.64.05l-39.68-27.19c-.55-.38-1.31-.34-1.84.11-1.64,1.39-3.58.59-5.81-2.41-1.53-2.07-3.43-3.65-5.7-4.72-12.85-6.26-25.41-11.51-37.67-15.77-15.28-5.36-31.13-9.47-47.56-12.34-32.49-5.68-65.06-5.76-97.7-.21-9.78,1.66-21.46,6.65-31.41,7.45-1.83.14-3.6.73-5.14,1.72-3.61,2.25-12.04,6.26-25.26,12.01-26.83,11.58-52.37,30.46-69.81,51.54-4.32,5.26-9.82,12.42-16.49,21.51-15.31,20.88-25.8,46.87-31.47,77.98-8.31,45.52-5.18,90.26,9.39,134.24,3.91,11.8,9.99,24.33,18.22,37.6,3.79,6.08,2.85,13.85-2.29,18.93-4.51,4.47-12.26,9.62-23.25,15.45-26.64,14.05-52.97,28.59-78.97,43.6-12.67,7.33-37.11,20.52-73.33,39.58-4.25,2.21-9.54,1.12-12.46-2.57Z"/>
    <path class="cls-2" d="M1755.69,1047.09c-20.38,14.73-47.02,32.36-79.92,52.88-26.53,16.55-52.91,33.9-79.14,52.02-66.1,45.62-139.56,91.39-220.38,137.3-59.65,33.9-112.81,63.36-159.45,88.38-18.15,9.73-37.15,14.66-57.01,14.8-24.52.18-48.9.18-73.16,0-2.04-.03-3.71,1.53-3.74,3.49,0,.02,0,.04,0,.05v50.68c0,1.89-.93,3.68-2.52,4.83-29.68,21.88-67.57,37.92-96.13,54.81-34.28,20.27-74.24,42.32-119.88,66.13-2.58,1.33-5.8.4-7.19-2.07-.41-.73-.63-1.55-.63-2.38v-348.71c.01-5.85,4.71-10.71,10.79-11.16,6.97-.5,56.47-.43,148.5.21,4.73.04,9.39.05,13.97.05,164.13-.97,255.88-1.13,275.26-.48,36.4,1.18,69.4.91,98.98-.8,27.22-1.61,43.87-13.68,76.18-29.93,88.23-44.44,179.2-88.69,272.91-132.74.61-.28,1.36-.08,1.79.48l.89,1.39c.19.24.14.57-.11.75Z"/>
    <path class="cls-2" d="M3656.57,1305.7l-267.27,135.58c-1.5.77-3.36.23-4.16-1.2-.24-.44-.37-.93-.37-1.42v-226.54c0-2.87,2.43-5.2,5.42-5.2h486.53c1.85,0,3.68-.33,5.42-.97l418.73-154.89c1.1-.39,2.32.13,2.72,1.16.09.23.13.47.13.72v1.72c0,.92-.51,1.77-1.34,2.2-124,69.08-211.6,117.9-262.8,146.47-67.7,37.76-143.97,80.14-228.81,127.16-10.32,5.72-20.96,10.91-31.91,15.55-2.67,1.14-5.17,2.58-7.43,4.29-12.69,9.65-28,14.7-43.48,23.87-17.14,10.19-27.89,15.73-32.25,16.63-12.41,2.65-39.46,3.65-81.15,3-1.79-.04-3.27,1.34-3.31,3.09,0,.13,0,.27.02.4,1.17,9.22.56,16.09.89,25.31.34,9.8-3.69,17-12.07,21.61-135.44,74.83-205.81,113.73-211.1,116.7-1.09.62-2.49.28-3.14-.76-.21-.34-.32-.72-.32-1.11v-90.1c0-1.26.71-2.43,1.84-3.06l270.96-158.21c.12-.04.18-.16.14-.27,0-.02-.01-.03-.03-.05l-.73-1.29c-.2-.4-.68-.58-1.07-.4-.02,0-.03.02-.05.02Z"/>
    <path class="cls-2" d="M3147.24,1101.42c.6-.22,1.29,0,1.62.54l1.79,2.95c.21.39.06.86-.34,1.07l-636.14,349.84c-1.62.86-3.66.33-4.55-1.19-.26-.44-.4-.93-.42-1.44-.39-7.62,8.61-18.56,7.21-24.03-.56-2.15.54-3.81,3.3-4.99,1.49-.64,2.83-2.22,4.02-4.72,4.36-9.01,9.26-18.59,14.7-28.75,1.27-2.32,2.74-3.9,4.42-4.72,2.05-.97,3.3-2.68,3.74-5.15,1.79-9.28,13.47-13.94,17.27-22.15,3.06-6.51,11.74-16.43,26.04-29.77,31-28.96,54.29-47.75,69.86-56.37,10.62-5.86,28.24-15.12,52.87-27.78.52-.29,3.54-1.72,9.05-4.29,12.07-5.65,26.6-11.1,43.59-16.36,7.04-2.18,16.97-4.97,29.79-8.37,11.44-3.04,21.44-5.38,30.01-7.03,22.8-4.36,51.1-7.69,84.9-9.98,21.39-1.47,41.4-6.38,60.03-14.75,57.46-25.85,103.21-46.75,137.27-62.7,12.3-5.74,25.65-14.91,39.96-19.9Z"/>
    <path class="cls-2" d="M2400.89,1513.58l-203.22,110.16c-3.04,1.64-6.89.6-8.6-2.32-.46-.79-.73-1.66-.79-2.56-2.05-31.86-7.55-60.55-16.49-86.08-15.87-45.27-45.05-80.93-89.48-103.35-23.47-11.87-48.62-20.81-75.45-26.82-2.03-.48-3.3-2.43-2.83-4.37.23-.97.87-1.79,1.77-2.28l219.7-121.74c1.2-.68,2.67-.77,3.97-.27,11.36,4.33,21.11,10.6,29.23,18.82,1.5,1.51,3.41,2.58,5.53,3.11.48.14.97.29,1.45.43,2.03.6,3.89,1.61,5.48,2.95,12.89,10.87,28.75,26.49,47.56,46.87,42.44,45.91,70.87,99.45,85.29,160.63.66,2.69-.62,5.47-3.13,6.81Z"/>
    <path class="cls-2" d="M3853.75,1392.26c-1.3-2.9.6-5.86,5.7-8.9,61.11-36.22,121.65-70.08,181.64-101.58,2.94-1.57,6.65-.56,8.29,2.27.51.88.78,1.87.77,2.88v100.51c0,3.44-2.9,6.22-6.48,6.22h-187.74c-.94,0-1.8-.55-2.18-1.39Z"/>
    <path class="cls-2" d="M3295.58,1913.56l86.13-54.28c1.68-1.07,2.69-2.87,2.68-4.77v-206.27c0-1.53.82-2.95,2.18-3.75,23.47-13.98,38.23-22.63,44.27-25.96,29.21-16.2,80.26-43.71,153.14-82.54,14.23-7.54,27.78-11.55,40.63-12.01,27.27-.89,55.69-.8,85.23.27,54.88,2.04,138.22-1.34,223,2.36,22.62.97,44.47-.77,65.56-5.2,1.78-.39,3.53-.99,5.2-1.77,36.44-17.27,58.18-29.98,88.31-40.71,21.8-7.78,41.69-20.65,63.44-27.41,12.46-3.81,28.17-13.09,44.54-19.52,28.5-11.26,56-22.99,82.49-35.18.45-.19.97-.02,1.16.39,0,.01.01.03.02.04l1.34,3.65c.08.21-.02.44-.22.54-16.13,8.37-134.16,74.3-354.06,197.79-24.33,13.62-78.86,43.1-163.59,88.44-9.61,5.11-16.93,7.87-21.96,8.26-41.96,3.11-85.21,3.29-129.78.54-1.72-.12-3.22,1.13-3.35,2.78,0,.07,0,.15,0,.22v79c0,1.96-1.08,3.78-2.85,4.77l-315.72,174.89c-1.73.96-2.79,2.74-2.79,4.67v54.44c0,1.72-1.45,3.11-3.24,3.11h-98.93c-5.09,0-10.08,1.3-14.48,3.75l-360.55,199.78c-.75.4-1.71.14-2.13-.58-.04-.07-.08-.15-.11-.22l-.56-1.5c-.59-1.48-.03-3.15,1.34-4.02l308.79-194.58c1.13-.75,1.43-2.23.67-3.33l-14.36-20.97c-1.2-1.74-3.6-2.26-5.42-1.18-6.52,3.75-10.82,6.06-12.91,6.92-15.57,6.22-25.6,10.05-30.07,11.48-66.73,21.1-135.65,26.89-206.74,17.38-65.09-8.69-125.64-29.21-181.64-61.57-12.44-7.19-28.95-18.79-49.52-34.81-1.34-1.05-3.18-1.28-4.75-.59-5.48,2.5-14.57,6.38-27.27,11.64-28.91,11.91-57.51,24.3-85.79,37.17-10.77,4.93-18.63,8.06-23.59,9.39-10.17,2.68-19.28,8.85-31.19,13.57-38.23,15.05-69.7,28.51-94.4,40.38-7.21,3.49-14.25,4.51-20.96,6.81-1.05.34-2.19-.2-2.55-1.21-.3-.86.06-1.81.87-2.27l174.49-94.98c.37-.21.71-.43,1.01-.64,13.25-10.89,31.75-15.82,46-26.28,4.55-3.33,12.97-7.6,25.26-12.82,2.67-1.14,5.19-2.62,7.49-4.4,10.62-8.26,24.48-13.41,36.05-19.79,33.91-18.84,88.74-48.64,164.49-89.4,1.57-.85,3.52-.72,4.97.32,13.23,9.73,28.09,16.84,44.6,21.35,1.56.43,3.08,1.04,4.53,1.82,6.45,3.4,14.35,6.42,23.7,9.06,32.83,9.19,63.75,12.82,92.78,10.89,35.4-2.32,69.9-11.07,103.51-26.23,1.57-.72,2.57-2.24,2.57-3.92v-103.19c0-1.45-1.23-2.63-2.74-2.63-.02,0-.04,0-.06,0l-145.37,3.43c-1.53.03-3.03-.4-4.3-1.23-1.97-1.29-4.12-1.75-6.43-1.39-2.14.33-4.19-1-4.69-3.06l-3.41-14.11c-.26-1-.37-2.01-.34-3l1.79-141.75c0-.8.65-1.45,1.45-1.45h0c124.08-2.22,239.88-2.31,347.41-.27,15.09.32,28.34,1.34,39.74,3.06,2.02.31,3.52,1.95,3.58,3.92,1.01,25.26,2.96,53.04,2.96,76.69-.3,118.81-.3,212.13,0,279.96-.02,1.18.97,2.16,2.2,2.18.45,0,.89-.12,1.26-.35Z"/>
    <path class="cls-2" d="M1840.75,1493.52c.86,5.79,1.38,11.62,1.56,17.48,2.83,83.99,2.87,170.55.11,259.68-.28,8.69-3.86,15.88-12.3,20.81-46.05,26.98-84.56,46.71-126.59,70.69-28.76,16.45-55.72,31.29-80.87,44.51-2.78,1.48-6.28.52-7.83-2.15-.47-.82-.72-1.74-.72-2.68v-282.16c0-3.02,1.57-5.86,4.19-7.56,23.06-15.09,48.44-29.57,76.12-43.44,12.67-6.36,27.55-14.34,44.66-23.92,25.15-14.05,39.98-22.17,44.49-24.35,18.5-8.8,35.04-21.08,53.99-28.69,1.21-.46,2.57.11,3.05,1.27.07.16.11.33.14.5Z"/>
    <path class="cls-2" d="M545.33,1872.48v-1.77c0-1.13.64-2.17,1.68-2.74,167.97-92.03,325.43-178.29,472.38-258.77,16.73-9.19,26.03-14.05,27.89-14.59,2.32-.67,4.46-1.81,6.26-3.33,12.8-10.73,31.69-15.55,45.05-25.58,3.65-2.79,13.15-7.71,28.5-14.75,2.27-1,4.4-2.24,6.37-3.7,13.79-10.01,29.55-17.25,47.28-21.72.3-.11.6-.14.89-.11l296.27.16c.99,0,1.79.79,1.79,1.77h0v42.91c0,2-1.07,3.86-2.85,4.93-80.48,47.3-152.13,85.65-214.95,115.04-8.38,3.9-19.45,5.94-33.2,6.11-48.36.68-77,.77-85.9.27-15.43-.82-34.09-.66-56,.48-1.94.09-3.47,1.65-3.47,3.54v81.14c0,1.8-1,3.47-2.63,4.4l-220.99,122.39c-.91.5-2.07.2-2.6-.67-.16-.27-.25-.58-.25-.89v-152.74c.01-.92-.75-1.67-1.71-1.68-.24,0-.47.04-.69.13l-305.38,122.17c-1.36.56-2.94-.07-3.53-1.4-.14-.32-.21-.66-.22-1.01Z"/>
    <path class="cls-2" d="M1207.96,2229.93c.82-2.97,2.92-5.4,6.32-7.29,33.5-18.84,112.34-62.21,236.53-130.11,3.02-1.68,8.63-5.02,16.82-10.03,9.17-5.69,21.96-9.39,30.63-16.14,11.85-9.28,28.62-13.78,41.86-23.28,5.22-3.75,14.07-8.31,26.55-13.68,2.37-1,4.61-2.28,6.65-3.81,12.69-9.28,30.4-14,43.59-24.46,2.16-1.71,4.46-3.24,6.87-4.56l275.65-147.81c3.73-1.99,7.82-3.31,12.07-3.92,15.87-2.22,33.46-3.2,52.76-2.95,20.46.25,37.3-1.14,50.52-4.18,30.55-6.97,52.74-13.94,66.57-20.92,21.87-11.01,39.38-24.21,52.54-39.58,6.45-7.51,11.89-15.14,16.32-22.9,9.5-16.48,19.28-35.75,29.34-57.81,1.53-3.34,4.13-6.13,7.43-7.94l219.82-121.8c2.18-1.23,4.99-.54,6.28,1.55.31.51.52,1.08.6,1.67,1.4,9.65,3.41,16.52,3.63,26.28.93,45.16-4.04,89.6-14.92,133.33-11.48,46.16-29.51,87.28-54.1,123.35-48.89,71.69-116.81,121.51-203.78,149.47-52.39,16.88-102.17,26.12-149.34,27.73-22.17.75-33.31,1.13-33.42,1.13-16.73-.36-34.13-.54-52.2-.54-4.4,0-21.76-.3-52.09-.91-36.92-.75-67.24.3-90.93,3.16-12.41,1.47-25.69,4.97-39.85,10.51-24.85,9.62-42.91,16.07-54.16,19.36-4.73,1.36-10.92,3.92-18.56,7.67-2.56,1.25-5.24,2.24-7.99,2.95-9.65,2.43-17.74,5.01-24.26,7.72-9.87,4.11-17.72,7.06-23.53,8.85-12.07,3.75-20.53,6.69-25.37,8.8-7.9,3.5-17.08,6.83-27.55,9.98-9.65,2.93-17.9,6.1-24.76,9.49-1.6.78-3.28,1.43-5.03,1.93-15.09,4.15-28.02,8.8-38.79,13.94-1.67.78-3.41,1.41-5.2,1.88-9.13,2.4-18.8,5.65-29.01,9.76-9.72,3.9-19.26,7.35-28.62,10.35-14.38,4.61-24.63,8.65-30.74,12.12-.69.42-1.5.66-2.35.7-2.53.18-3.97.32-4.3.43-13.67,4.97-46.84,17.36-99.48,37.17-5.33,2-9.8,3.95-13.41,5.85-6.93,3.59-13.97,3.16-20.79,7.03-8.91,5.08-19.75,9.3-32.53,12.66-.98.28-2-.26-2.29-1.2-.1-.33-.1-.68,0-1Z"/>
    <path class="cls-2" d="M1295.66,1695.44c-1.23-2.68.54-5.45,5.31-8.31,57.19-34.07,113.85-65.91,169.96-95.52,2.75-1.48,6.22-.52,7.77,2.15.46.8.72,1.71.73,2.62l.22,94.18c0,3.21-2.69,5.82-6.04,5.85l-175.94.38c-.89-.02-1.68-.55-2.01-1.34Z"/>
    <path class="cls-2" d="M3920.82,1694.74c2.46-4.11,6.22-7.79,11.29-11.05,16.28-10.44,35.36-21.77,57.23-34,3.48-1.93,7.92-.78,9.93,2.55.63,1.05.97,2.24.97,3.45v35.77c0,3.02-2.55,5.47-5.7,5.47h-72.38c-.86-.02-1.54-.71-1.52-1.54,0-.23.07-.45.18-.66Z"/>
    <path class="cls-2" d="M932.26,1905.3c-.57.3-1.28.09-1.59-.45-.03-.06-.06-.12-.09-.19l-1.23-3.92s-.02-.12.03-.15c0,0,.02,0,.03-.01l147.83-85.54c1.66-.98,3.83-.48,4.84,1.11.34.54.53,1.16.52,1.79v1.77c0,2.59-1.31,5.03-3.52,6.54-14.16,9.51-22.1,14.75-23.81,15.71-33.72,18.49-74.73,39.6-123.01,63.34Z"/>
    <path class="cls-2" d="M3166.75,2138.38c3.43-3.5,10.6-8.62,21.52-15.34,96.39-59.28,214.99-128.29,355.8-207.02,14.16-7.9,29.62-16.39,46.39-25.48,27.68-15.02,41.9-22.72,42.64-23.12,21.05-11.69,35.58-18.72,43.59-21.08,10.95-3.16,29.4-3.49,44.1-2.41,22.39,1.64,43.48,2.23,63.27,1.77,92.78-2.2,184.83-.97,264.86-2.63,2.47-.06,4.52,1.81,4.58,4.18,0,.04,0,.07,0,.11v178.38c0,2.01-1.7,3.65-3.8,3.65-.02,0-.04,0-.06,0-283.42,0-436.17,1.5-533.03-1.13-30.29-.82-59.88.07-88.75,2.68-1.67.18-3.32.54-4.92,1.07-22.77,7.87-72.68,28.64-149.73,62.32-51.38,22.45-82.53,36.99-93.45,43.6-1.4.85-3,1.4-4.69,1.61l-7.27.8c-.67.09-1.3-.36-1.39-1-.05-.36.07-.72.33-.98Z"/>
    <path class="cls-2" d="M525.71,2249.56c-.79.25-1.65-.16-1.91-.92-.2-.58,0-1.23.51-1.6,17.77-12.01,43.54-27.14,77.3-45.37,33.65-18.16,62.95-33.81,87.92-46.93,2.24-1.18,4.55-2.75,6.93-4.72,1.89-1.53,3.98-2.81,6.2-3.81,5.44-2.43,19.04-9.55,40.8-21.35,131.12-71.12,244.87-133.15,341.27-186.1,70.46-38.72,124.19-68.08,161.19-88.06,11.57-6.27,37.11-4.61,49.69-4.88,71.99-1.54,148.97-1.93,230.94-1.18,2.47,0,4.47,1.92,4.47,4.29v177.47c0,2.34-1.98,4.24-4.42,4.24h0c-88.36.43-198.08,2.09-310.08-.8-23.44-.61-42.38-.07-56.84,1.61-13.94,1.61-33.78,7.04-59.52,16.3-53.47,19.2-104.2,37.33-152.19,54.38-26.23,9.3-41.88,14.93-46.95,16.89-8.83,3.4-28.45,10.05-58.85,19.95-8.55,2.79-15.48,8.47-23.19,8.8-.89.04-1.77.2-2.63.48l-290.63,101.31Z"/>
  </g>
</svg>