<?xml version="1.0" encoding="UTF-8"?>
<svg id="Layer_1" data-name="Layer 1" xmlns="http://www.w3.org/2000/svg" viewBox="0 0 2688 1123">
  <defs>
    <style>
      .cls-1 {
        fill: none;
      }

      .cls-2 {
        fill: #051629;
      }

      .cls-3 {
        fill: rgba(13, 66, 167, .98);
      }

      .cls-4 {
        fill: rgba(1, 135, 215, .69);
      }

      .cls-5 {
        fill: #db0e05;
      }
    </style>
  </defs>
  <g>
    <path class="cls-1" d="M729.21,479.31c.3.15.65.22,1.05.23,25.11.23,50.23.15,75.34-.22" vector-effect="non-scaling-stroke"/>
    <path class="cls-1" d="M740,809.63c-18.36-.87-36.64-.8-54.83.19" vector-effect="non-scaling-stroke"/>
    <path class="cls-1" d="M978.58,479.09c0,.06.01.15.03.28.01.07.07.12.14.12,55.25.11,110.5.13,165.75.06,1.42,0,2.4-.14,2.95-.41" vector-effect="non-scaling-stroke"/>
    <path class="cls-1" d="M1241.31,809.68c-1.57-.33-3.68-.49-6.31-.5-95.5-.05-191-.06-286.5-.03-3.92,0-6.94.19-9.05.54" vector-effect="non-scaling-stroke"/>
    <path class="cls-1" d="M2030.96,565.32c-54.91-.2-109.82-.23-164.74-.09-.16,0-.3.04-.41.1-.13.07-.24.16-.35.25" vector-effect="non-scaling-stroke"/>
    <path class="cls-1" d="M1839.13,565.82c.03-.05.02-.14-.02-.25-.05-.17-.21-.29-.39-.29l-106.12.23" vector-effect="non-scaling-stroke"/>
    <path class="cls-1" d="M1605.98,565.91c.03-.49-.63-.73-1.98-.73-37.25-.09-74.51-.06-111.76.08-.49,0-.88.11-1.17.32" vector-effect="non-scaling-stroke"/>
    <path class="cls-1" d="M655.13,732.32c21.53.58,43.06.61,64.59.08" vector-effect="non-scaling-stroke"/>
  </g>
  <path class="cls-5" d="M1723.67,286.93c-.57-.67-.49-1.68.19-2.25.4-.34.94-.46,1.44-.33l361.59,95.29c.63.17,1.28-.19,1.48-.82,16.15-52.93,51.69-169.47,106.61-349.6.31-1,.67-1.64,1.08-1.93.77-.52,1.81-.32,2.34.45.1.14.17.3.22.46l106.85,351.08c.14.45.52.79.98.89.39.09,1.14-.02,2.27-.32,235.48-62.38,354.09-93.85,355.84-94.4,1.59-.5,3.56-1.07,4.87.03.56.48.63,1.33.15,1.9,0,0-.01.02-.02.02l-252.14,279.55c-.66.74-.66,1.86.01,2.59l249.93,274.07c.37.4.58.92.6,1.47.04,1.14-.66,1.75-2.11,1.82-.03,0-.07,0-.1-.01l-357.89-94.46c-.73-.19-1.5.18-1.79.88-.34.81-1.37,4.05-3.08,9.72-8.08,26.68-41.42,136.08-100.03,328.19-2.05,6.72-3.4,11.07-4.06,13.04-.28.84-1.2,1.3-2.05,1.03-.71-.23-1.22-.86-1.52-1.89-1.53-5.2-26.49-87.23-74.89-246.1-.22-.73-.88-3.02-1.99-6.88-.09-.31-.04-.65.14-.93.51-.78,1.4-1.17,2.65-1.17,30.15.01,58.28.02,84.4.01.7,0,1.3-.47,1.48-1.15l42.25-160.33c.19-.73-.24-1.47-.97-1.67-.08-.02-.17-.04-.26-.04-1.29-.08-3.17-.12-5.64-.12-77.82-.03-123.57-.03-137.25.01-1.87,0-3.15-.2-3.83-.59-.62-.37-.83-1.17-.46-1.79.08-.14.19-.26.31-.36l138.51-111.12c.91-.73,1.56-1.74,1.86-2.87l34.08-129.37c.22-.82-.28-1.66-1.1-1.88-.15-.04-.31-.06-.46-.05h-411.91c-1.4,0-2.67-.63-3.81-1.88-66.25-72.84-109.22-119.95-128.91-141.33-.76-.83-2.71-3.11-5.86-6.86Z"/>
  <path class="cls-4" d="M601.98,384.11l-.04-.95c0-.17.13-.32.3-.34l1072.92-97.29c.1,0,.2.03.27.11l50.98,55.9c.13.13.12.34,0,.47-.06.06-.14.09-.22.09l-1123.86,42.33c-.18,0-.33-.14-.34-.32h0Z"/>
  <path class="cls-3" d="M264.46,433.27c-.3-.05-.51-.35-.45-.65.05-.25.26-.44.51-.46,8.64-.63,14.74-.97,18.31-1.04,10.44-.19,16.55-.41,18.33-.64,1.82-.23,7.96-.43,18.42-.61.53,0,4.64-.24,12.32-.71,4.74-.28,10.96-.12,16.46-.52,5.79-.41,11.27-.65,16.44-.7,7.58-.07,14.05-.85,21.87-.94,4.95-.05,10.19-.29,15.72-.71,6.65-.51,13.74-.23,20.98-.8,3.77-.3,8.14-.48,13.09-.53,7.56-.08,13.84-.91,21.61-.95,3.16-.01,8.32-.25,15.47-.7,4.6-.29,9.76-.44,15.49-.45.15,0,1.93-.15,5.32-.44,6.7-.59,13.53-.45,20.15-.8,10.26-.55,18.76-.94,25.5-1.18.79-.03,1.54-.05,2.25-.08,9.49-.3,16.56-.64,21.23-1.02.67-.05,1.17-.08,1.52-.09,8.45-.24,12.84-.19,19.39-.7,4.84-.37,9.57-.58,14.18-.61,6.76-.06,12.63-.82,19.76-.92,5.13-.07,9.99-.3,14.57-.69,6.32-.54,12.73-.23,19.45-.79,8.06-.67,16.89-.45,25.19-1.22,1.67-.16,6.53-.31,14.58-.46.34,0,3.9-.23,10.68-.67,4.6-.3,9.58-.1,14.27-.51,4.59-.41,9.24-.64,13.95-.7,3.07-.03,7.72-.25,13.95-.65,4.25-.27,10.84-.5,19.77-.67.32,0,.65-.06.95-.17.63-.23,1.07-.35,1.32-.35,7.69-.05,12.94-.18,15.75-.39,4.33-.31,9.33-.56,14.98-.73,5.96-.18,10.67-.41,14.12-.7,2.81-.23,5.95-.35,9.43-.35,3.17,0,6.31-.15,9.41-.43,3.55-.32,7.43-.5,11.62-.54,4.65-.05,9.59-.31,14.83-.76,1.48-.13,4.78-.22,9.91-.27,1.1,0,4.4-.16,9.9-.47,10.65-.59,18.05-.96,22.22-1.09.51-.02,1.04-.04,1.58-.07,7.9-.37,13.37-.21,19.63-.82,3.03-.3,6.8-.48,11.29-.53,4.47-.05,9.22-.28,14.25-.69,5.93-.49,12.75-.2,19.04-.78,3.32-.3,7.11-.48,11.36-.53,8.03-.09,16.2-1.06,24.73-1.02,1.18,0,4.48-.17,9.89-.52,6.67-.43,14.08-.77,22.23-1.04.45-.01.98-.03,1.58-.06,7.78-.38,13.15-.22,19.31-.81,3.21-.31,6.98-.48,11.33-.53,4.57-.05,9.51-.29,14.81-.71,6.33-.51,12.89-.24,19.77-.84,3.03-.27,6.93-.43,11.7-.5,5.08-.07,8.98-.27,11.69-.62.39-.05,5.35-.22,14.88-.49.63-.02,4.63-.26,11.99-.71,4.91-.3,10.24-.14,16.02-.62,3.37-.27,7.53-.46,12.5-.57,6.29-.13,10.46-.33,12.49-.6.8-.11,5.69-.28,14.66-.52.42,0,4.14-.23,11.16-.67,4.74-.29,9.89-.1,14.9-.54,4.14-.37,8.28-.57,12.43-.61,7.89-.09,16.24-1.02,24.71-1.06,6.82-.03,13.24-.88,20.56-.96,4.41-.05,9.16-.28,14.26-.69,5.96-.48,12.69-.21,19.05-.78,3.47-.31,7.2-.49,11.17-.52,7.95-.07,16.04-.99,24.56-1.04,2.86-.01,6.14-.17,9.83-.47,3.74-.31,7.74-.48,11.99-.53,4.87-.05,8.86-.26,11.99-.62,1.06-.12,6.03-.28,14.91-.47.13,0,4-.24,11.63-.72,4.63-.3,10.41-.11,15.56-.57,3.39-.31,7.42-.5,12.09-.57,2.17-.03,6.19-.21,12.08-.53,8.82-.49,14.81-.71,17.97-.67.47,0,2.19-.12,5.17-.38,7.99-.69,16.46-.43,20.82-.86,3.69-.37,7.63-.57,11.83-.61,8.76-.07,15.43-.98,23.65-1,3.76,0,7.25-.17,10.46-.49,2.53-.25,6.03-.41,10.48-.46,3.21-.05,8.31-.26,15.28-.65,7.43-.42,12.53-.66,15.3-.71.69-.01,3.28-.1,7.75-.27,8.88-.32,14.96-.6,18.25-.84,5.16-.38,9.8-.57,13.93-.56,2.42,0,5.84-.18,10.27-.55,3.12-.26,6.55-.4,10.29-.43,7.87-.06,16.46-.98,25.24-1.05,3.18-.03,6.54-.2,10.09-.52,2.96-.26,7.14-.42,12.54-.47,3.82-.04,7.62-.22,11.39-.55,6.34-.55,13.89-.34,21.09-.83.06,0,3.29-.21,9.68-.61,4.93-.31,8.95,1.24,12.08,4.67,25.88,28.37,42.93,46.86,53.7,58.96,1.55,1.74,1.34,3.28-.55,4.36-.02.01-.04.02-.07.02-21.48.03-230.12.02-625.93-.04-212.7-.04-351.07-.42-411.7-.09-.45,0-1.18-.12-2.2-.35-.33-.08-.66-.12-1-.11-5.05.03-69.58,0-193.58-.06-.61,0-1.24,0-1.9,0-54.15-.28-100.77-.35-139.87-.22-.58,0-1.15.08-1.7.24-.12.03-.24.05-.37.04-9.63-.13-28.77-.06-57.43.21-.61,0-1.11.01-1.51.01-8.6.07-22.43.2-41.49.38-12.89.12-25.8.1-38.73-.07-2.87-.03-6.21-.22-10.01-.57-4.5-.41-9.07-.23-13.55-1.07Z"/>
  <path class="cls-2" d="M729.21,479.31c.3.15.65.22,1.05.23,25.11.23,50.23.15,75.34-.22,12.6-.37,25.22-.47,37.86-.3,3.7.05,7.31.24,10.82.57,3.52.33,7.16.5,10.91.5.25,0,.49.04.73.12,1.04.35,3.72.66,8.05.94,3.55.23,9.87,1.31,18.95,3.22,7.01,1.47,14.1,3.71,21.28,6.71,15.32,6.39,27.96,17.23,34.34,32.31,3.95,9.35,5.39,20.77,4.32,34.27-1.73,21.85-10.41,40.56-26.04,56.13-9.66,9.63-22.02,17.31-37.07,23.05-1.29.49-1.86.21-2.74,1.62-.33.53-.16,1.22.36,1.54.08.05.17.09.26.12,2.41.73,5.19,1.73,8.35,2.99,16.85,6.71,29.13,18.28,33.68,36.24,1.02,4.03,1.71,8.58,2.07,13.67.51,7.22.12,14.92-1.16,23.09-1.75,11.08-5.26,21.34-10.53,30.77-20.19,36.11-63.35,54.44-102.56,60.02-1.69.24-5.57.71-11.64,1.42-10.33,1.2-20,.85-31.13.82-.19,0-.7.07-1.34.17-.95.15-2.58.23-4.87.24-9.56.04-19.06.07-28.5.08-18.36-.87-36.64-.8-54.83.19l-171.92.15c-.99,0-1.8-.81-1.8-1.81,0-.16.02-.31.06-.46,20.11-76.17,43.59-165.07,70.43-266.72.53-1.98,0-3.83-1.56-5.55-26.19-28.87-42.1-46.29-47.73-52.28-.47-.5-1.02-1.23-1.64-2.18-.35-.54-.19-1.26.34-1.6.19-.12.4-.19.63-.19l197.23.13ZM687.93,607.49c.19.29.52.47.86.47l104.12-.14c.07,0,.15-.01.22-.03,2.88-.68,5.81-.67,8.61-1.34,13.31-3.2,22.34-11.36,27.07-24.47.09-.27.15-.54.17-.83.07-1.13.32-2.26.73-3.4.13-.36.19-.73.2-1.11.04-2.95-.45-5.91-1.48-8.89-1.79-5.2-5.36-8.62-10.7-10.26-5.39-1.66-11.31-2.46-17.76-2.41-11.27.09-25.3.1-42.1.04-.7,0-1.57.45-2.37.45-5.36.04-22.53.04-51.5.01-2.67,0-4.02,1.15-4.03,3.46,0,.3-.08.6-.24.86-.18.3-.43,1.08-.76,2.34-5.87,22.71-9.54,36.62-11.01,41.73-.47,1.66-.48,2.83-.03,3.52ZM655.13,732.32c21.53.58,43.06.61,64.59.08,16,.05,32.03-.05,48.08-.28,7.3-.11,13.56-.95,18.77-2.52,14.22-4.29,22.68-14.08,25.37-29.36.69-3.91.64-7.49-.15-10.74-1.16-4.79-3.94-8.35-8.34-10.68-1.75-.93-4.28-1.56-7.57-1.91-4.77-.51-7.39-.77-7.88-.77-29.11-.15-68.43-.18-117.96-.11-.93,0-1.75.63-1.99,1.53-2.42,9.03-6.75,25.43-12.99,49.2-.31,1.17-.61,2.15-.89,2.93-.34.95-.02,1.82.96,2.63Z"/>
  <path class="cls-3" d="M805.6,479.32c-25.11.37-50.23.45-75.34.22-.4,0-.75-.08-1.05-.23h76.39Z"/>
  <path class="cls-2" d="M978.58,479.09c0,.06.01.15.03.28.01.07.07.12.14.12,55.25.11,110.5.13,165.75.06,1.42,0,2.4-.14,2.95-.41.57.41.97.82,1.22,1.21.11.17.14.38.09.58l-62.49,237.11c-.15.58.19,1.17.77,1.32.09.02.18.04.28.04h177c1.16,0,2.1.94,2.1,2.1,0,.18-.02.36-.07.53-7.11,27.13-14.7,55.89-22.78,86.28-.47,1.77-1.23,2.23-2.26,1.37-1.57-.33-3.68-.49-6.31-.5-95.5-.05-191-.06-286.5-.03-3.92,0-6.94.19-9.05.54-.17.27-.46.34-.87.19-.25-.09-.44-.29-.52-.54-.31-1.05-.3-2.15.03-3.32.15-.53.8-2.95,1.94-7.26,25.33-95.87,49.27-186.43,71.8-271.68.11-.42.01-.86-.25-1.2l-35.34-44.04c-.28-.35-.35-.82-.18-1.24.42-1.05,1.26-1.56,2.52-1.51Z"/>
  <path class="cls-3" d="M1147.45,479.14c-.55.27-1.53.4-2.95.41-55.25.07-110.5.05-165.75-.06-.07,0-.13-.05-.14-.12-.02-.13-.03-.22-.03-.28l168.87.05Z"/>
  <path class="cls-2" d="M1394.39,810h-118.89c-1.62,0-2.93-1.31-2.93-2.93,0-.25.03-.5.1-.75l85.58-324.73c.34-1.29,1.51-2.18,2.84-2.18h118.88c1.62,0,2.93,1.31,2.93,2.93,0,.25-.03.5-.1.75l-85.57,324.73c-.34,1.29-1.51,2.18-2.84,2.18Z"/>
  <path class="cls-2" d="M2030.96,565.32c-54.91-.2-109.82-.23-164.74-.09-.16,0-.3.04-.41.1-.13.07-.24.16-.35.25-.88-.43-1.22-1.05-1.01-1.84,8.76-32.94,15.87-59.8,21.34-80.58.38-1.47.21-2.7,1.71-3.62.14-.09.3-.14.46-.14h335.42c.9,0,1.63.73,1.64,1.63,0,.14-.02.28-.06.42l-17.75,67.37c-.23.88-.74,1.65-1.45,2.22-62.23,49.97-130.44,104.67-204.62,164.09-2.91,2.33-4.82,3.92-5.75,4.76-.4.37-.65.8-.74,1.29-.07.4.2.79.6.86.04,0,.09.01.13.01h202.62c1.01,0,1.82.82,1.82,1.82,0,.15-.02.31-.06.46l-22.25,84.42c-.19.74-.86,1.25-1.62,1.25h-375.97c-.45,0-.83-.35-.87-.8-.07-.71.06-1.7.4-2.97,7.57-28.35,12.72-47.86,15.46-58.52.67-2.61,1.41-5.19,2.2-7.73.17-.55.5-1.03.94-1.38,25.24-20.24,89.63-71.87,193.17-154.88,9.08-7.28,15.64-12.55,19.67-15.82.55-.45.57-1.31.07-2.58Z"/>
  <path class="cls-2" d="M1839.13,565.82c.03-.05.02-.14-.02-.25-.05-.17-.21-.29-.39-.29l-106.12.23-1.01,1.31c-.16.2-.27.44-.34.69l-63.65,240.89c-.25.94-1.1,1.6-2.07,1.6h-119.28c-1.15,0-2.09-.94-2.09-2.08,0-.18.02-.35.07-.53,14.6-55.34,34.69-131.32,60.26-227.93,1.8-6.82,2.77-10.68,2.91-11.57.21-1.34-.26-2-1.42-1.98.03-.49-.63-.73-1.98-.73-37.25-.09-74.51-.06-111.76.08-.49,0-.88.11-1.17.32-.99-.19-1.61-.71-1.87-1.55-.07-.22-.08-.46-.02-.67l21.7-82.36c.25-.94,1.1-1.6,2.07-1.6h348.89c.1,0,.2.03.29.07,1.47.65,2.07,1.5,1.8,2.53-3.8,14.36-10.64,40.21-20.51,77.56-.48,1.82-1.27,7.39-4.29,6.26Z"/>
  <path class="cls-3" d="M543.96,544.06c.34.01.61.31.59.66,0,.05,0,.09-.02.13l-10.97,41.63c-.1.36-.44.61-.81.6l-329.39-14.12c-.22,0-.39-.19-.38-.41,0-.09.04-.19.1-.26l.35-.39c.35-.38.83-.61,1.35-.63,2.31-.07,5.65-.28,10.03-.64,72.8-5.91,155.61-12.59,248.44-20.04,1.03-.09,1.84-.2,2.41-.34.17-.04.34-.07.51-.08l59.95-4.52c.16-.01.31-.05.46-.1.68-.25,1.24-.38,1.69-.39,4.45-.08,8.61-.39,12.48-.94,1.13-.15,2.2-.21,3.21-.16Z"/>
  <path class="cls-3" d="M1605.98,565.91l-114.91-.33c.29-.21.68-.32,1.17-.32,37.25-.14,74.51-.17,111.76-.08,1.35,0,2.01.24,1.98.73Z"/>
  <path class="cls-3" d="M1839.13,565.82c-35.51.41-71.02.3-106.53-.31l106.12-.23c.18,0,.34.12.39.29.04.11.05.2.02.25Z"/>
  <path class="cls-3" d="M2030.96,565.32c-.05.09-.09.17-.14.26-.09.15-.25.25-.42.25l-164.94-.25c.11-.09.22-.18.35-.25.11-.06.25-.09.41-.1,54.92-.14,109.83-.11,164.74.09Z"/>
  <path class="cls-4" d="M17.29,644.44l-.02-.32c-.01-.17.12-.32.29-.33,0,0,0,0,0,0l506.2-28.93c.89-.05,1.66.63,1.71,1.53,0,.17,0,.33-.05.49-2.94,11.42-7.52,28.78-13.74,52.08-.45,1.67-1.76,2.44-3.93,2.33-114.86-6.13-186.53-9.99-215.01-11.58-7.4-.41-11.7-.64-12.89-.67-6.2-.16-11.66-.84-17.39-.95-3.83-.08-7.77-.3-11.84-.66-5.08-.45-9.93-.34-15.81-.79-1.25-.09-6.62-.39-16.11-.9-71.42-3.79-108.6-5.8-111.54-6.01-7.27-.52-16.95-.69-23.13-1.25-5.62-.52-10.48-.34-16.35-.86-6.49-.57-13.25-.46-19.23-1.03-6.95-.68-12.42-.48-20.24-1.12-3.27-.27-6.76-.46-10.46-.58-.25,0-.45-.2-.46-.45Z"/>
  <path class="cls-3" d="M501.73,701.31l-9.75,36.98c-.19.71-.85,1.18-1.57,1.12-91.9-6.9-183.79-14.09-275.68-21.57-1.34-.11-2.48-.28-3.42-.51-1.74-.43-3.86-.63-5.43-1.55-.3-.18-.4-.57-.22-.86.11-.18.3-.3.51-.31l295.1-13.87c.25-.01.46.17.48.42,0,.05,0,.1-.02.15Z"/>
  <path class="cls-3" d="M719.72,732.4c-21.53.53-43.06.5-64.59-.08,21.52-.51,43.05-.48,64.59.08Z"/>
  <path class="cls-3" d="M740,809.63l-54.83.19c18.19-.99,36.47-1.06,54.83-.19Z"/>
  <path class="cls-3" d="M1241.31,809.68h-301.86c2.11-.34,5.13-.52,9.05-.53,95.5-.03,191-.02,286.5.03,2.63,0,4.74.17,6.31.5Z"/>
  <path class="cls-3" d="M544.7,859.91h1537.06c.96,0,1.81.63,2.09,1.55l19.49,64.03c.41,1.34-.35,2.76-1.69,3.17-.1.03-.2.05-.31.07-2.42.41-5.58-.21-7.76-.33-5.45-.29-9.7-.43-12.73-.4-1.47,0-5.7-.21-12.69-.66-4.22-.27-10.11-.44-17.66-.5-.9-.01-1.57-.36-2.37-.4-7-.31-11.64-.46-13.93-.45-1.8,0-6.43-.23-13.9-.7-4.35-.28-9.95-.43-16.8-.45-.57,0-1.09-.1-1.57-.31-.1-.05-.21-.07-.33-.08-6.68-.29-11.41-.44-14.19-.44-1.35,0-5.96-.24-13.81-.7-5.06-.3-10.59-.46-16.6-.47-1.03-.01-2.03-.37-3.02-.41-10.23-.46-16.93-.42-27.28-1.14-3.35-.23-8.91-.38-16.7-.45-.6,0-1.31-.11-2.12-.31-.25-.07-.5-.1-.76-.11-5.93-.25-13.5-.33-22.4-.81-7.53-.41-12.35-.62-14.48-.63-2.74-.02-7.56-.26-14.46-.73-2.53-.17-7.96-.31-16.28-.41-.93-.02-1.76-.45-2.35-.46-10.67-.26-17.56-.49-20.65-.69-6.28-.41-11.5-.64-15.66-.69-4.41-.06-9.63-.33-15.65-.8-.41-.03-3.9-.12-10.46-.26-2.41-.05-5.88-.24-10.43-.57-2.83-.21-6.46-.33-10.88-.37-3.31-.03-8.25-.29-14.82-.77-5.61-.41-13.01-.19-19.79-.79-2.03-.17-6.26-.32-12.71-.45-2.49-.05-6.72-.26-12.69-.63-5.49-.34-11.46-.51-17.91-.52-.85,0-1.57-.37-2.36-.4-7.18-.31-11.77-.45-13.77-.44-1.91.01-6.48-.22-13.73-.7-4.03-.27-9.75-.42-17.14-.45-.9,0-1.57-.37-2.37-.41-5.83-.27-10.42-.42-13.76-.44-1.63-.01-6.2-.24-13.72-.69-4.93-.29-10.48-.45-16.65-.46-1.03,0-2.03-.37-3.02-.42-5.43-.28-9.99-.42-13.66-.43-1.39,0-5.94-.23-13.63-.68-5.45-.32-11.01-.48-16.69-.48-1,0-2.08-.38-3.02-.42-6.14-.28-13.13-.48-20.98-.61-.71-.01-1.34-.29-2.03-.33-5.64-.31-10.19-.47-13.65-.49-1.95,0-6.49-.23-13.63-.67-4.87-.3-10.6-.45-17.19-.45-.53,0-1.03-.1-1.51-.3-.17-.08-.36-.12-.55-.13l-45.26-1.57c-.14,0-.27-.03-.4-.08-.51-.21-1.43-.34-2.77-.41-8.58-.44-14.97-.32-24.05-.96-3.39-.25-7.1-.38-11.12-.41-4.39-.03-9.6-.3-15.65-.81-.71-.06-4.19-.16-10.46-.3-2.14-.04-5.62-.21-10.45-.52-5.14-.32-11.23-.5-18.28-.53-.56,0-1.26-.1-2.1-.3-.27-.06-.55-.1-.84-.11-6.35-.31-13.44-.52-21.26-.64-.11,0-.29-.03-.53-.1-.24-.07-.42-.11-.54-.12-1.82-.24-6.32-.42-13.49-.55-3.21-.06-7.7-.27-13.46-.64-5.4-.35-11.58-.54-18.53-.55-.72-.01-1.34-.36-2.04-.4-10.47-.47-17.41-.38-27.59-1.17-1.63-.13-7.08-.27-16.37-.42-.73-.01-1.59-.13-2.56-.36-.13-.03-.26-.05-.4-.06-11.27-.4-18.72-.38-22.82-.82-3.58-.38-10.82-.64-21.72-.77-.93-.01-1.79-.37-2.69-.41-9.94-.46-17.68-.38-27.4-1.16-2.24-.18-5.83-.28-10.78-.31-1.23,0-4.82-.2-10.76-.57-5.48-.34-11.94-.52-19.37-.53-.15,0-.35-.07-.61-.22-.28-.16-.59-.24-.9-.24-3.37,0-10.78-.28-22.21-.83-10.25-.49-17.76-.74-22.53-.75-.6,0-1.17-.1-1.72-.3-.21-.07-.42-.11-.63-.12-12.47-.35-19.82-.61-22.07-.77-6.27-.45-11.18-.67-14.72-.67-4.23,0-9.13-.23-14.7-.71-5.35-.46-13.33-.2-19.87-.81-2.64-.25-6.51-.38-11.62-.4-1.74-.01-7.01-.27-15.82-.77-5.19-.29-10.47-.43-15.85-.42-.84,0-1.57-.37-2.34-.41-10.39-.45-16.39-.37-26.2-1.06-4.06-.29-10.3-.47-18.71-.56-.76-.01-1.33-.35-2.03-.38-6.47-.29-11.13-.44-13.99-.45-1.69,0-6.34-.23-13.95-.69-4.84-.29-10.27-.44-16.28-.45-.56,0-1.32-.12-2.28-.35-.28-.07-.56-.11-.85-.11-6.37-.09-13.57-.35-21.59-.78-10.03-.54-17.45-.8-22.28-.79-1.07,0-2.03-.35-3.02-.4-5.81-.27-10.36-.42-13.66-.45-3.53-.03-8.07-.27-13.64-.7-1.86-.15-5.46-.25-10.79-.32-1,0-4.59-.19-10.77-.56-6.15-.36-12.35-.54-18.62-.54-.84,0-1.58-.36-2.38-.4-10.24-.47-16-.44-26.15-1.07-5.47-.35-11.71-.53-18.72-.54-.73-.01-1.35-.37-2.02-.39-10.16-.26-17.05-.52-20.66-.77-4.72-.34-9.94-.56-15.67-.66-3.28-.06-8.52-.31-15.71-.75-2.79-.17-6.27-.28-10.46-.33-1-.01-4.48-.2-10.44-.55-6.26-.37-12.36-.56-18.29-.55-.61,0-1.28-.1-2.01-.31-.15-.05-.3-.07-.46-.07l-26.32-1c-.44-.02-.83-.26-1.04-.63-.39-.68-.39-1.24,0-1.68.13-.15.33-.24.53-.24Z"/>
  <path class="cls-3" d="M1043.61,914.87c-.24.49-.55.51-.94.08-.11-.12-.1-.31.02-.42.05-.05.12-.08.2-.08h.46c.16,0,.29.13.29.29,0,.05-.01.09-.03.13Z"/>
  <path class="cls-4" d="M1048.97,914.54c1.34-.15,3.01-.01,5.02.4,1.69.35,7.08.5,16.17.47.56,0,1,.26,1.6.27,9.86.12,15.94.27,18.24.46,9.33.74,24,.67,35.94,1.37,5.03.3,9.59.44,13.66.41,1.99-.01,7,.2,15.02.64,6.82.37,15.18.14,22.72.76,1.39.11,3.94.22,7.66.31,10.02.26,17.77.52,23.25.79,5.84.27,10.98.44,15.41.51,10.12.14,18.78.85,29.33,1,3.27.05,9.19.26,17.75.65,8.07.37,13.99.58,17.76.65,4.38.07,8.8.16,13.26.27,10.03.25,20.03.57,30,.98,7.59.31,14.28.6,20.05.87,5.86.27,11.72.49,17.58.64,5.12.14,10.23.36,15.32.66,4.13.24,9.24.49,15.33.76,12.13.54,23.92,1.04,35.37,1.51,9.8.41,19.97,1.16,30.34,1.1,1.64,0,3.39.26,5,.32,14.13.49,28.18.73,42.15.7.66,0,1.83.3,2.85.32,31.05.53,49.11.89,54.18,1.06.31.01,1.5.05,3.57.11,9.32.28,16.07.52,20.25.72,10.95.52,36.39,1.52,76.3,3.01,19.02.71,28.77,1.08,29.25,1.1,6.8.29,13.62.5,20.47.63,8.08.15,14.78.36,20.11.62,3.94.19,8.41.3,13.42.33,4.13.02,8.6.16,13.41.42,7.15.39,13.16.58,18.02.58,4.43,0,10.77.21,19.02.65,6.22.32,16.08.1,25.44.67,13.7.83,26.61.74,34.03,1.19,9.4.58,18.12.45,28.37,1.05,8.62.5,16.57.4,25.85,1.04,2.53.17,6.27.31,11.21.4,7.24.13,15.2.93,23.21,1.01,2.06.02,5.15.14,9.27.37,9.01.51,15.8.74,20.37.7,1.22-.01,4.11.14,8.66.45,3.44.24,6.33.37,8.68.4,6.25.07,11.68.22,16.29.45,12.3.61,20.86.47,31.62.94,5.86.26,10.97.43,15.34.51,24.39.45,39.48.82,45.28,1.13,3.57.19,4.8,3.02,5.83,6.38,10.41,34.08,15.69,51.39,15.83,51.93.34,1.31-.15,2.21-1.48,2.68-.18.07-.38.09-.58.06-12.39-1.51-24.89-2.57-37.49-3.19-3.43-.17-9.43-.54-18-1.11-6.13-.41-12.11-.91-17.94-1.51-28.75-2.97-55.68-5.58-80.8-7.81-28.81-2.57-72.58-6.3-131.31-11.19-19.87-1.65-47.44-4.08-82.71-7.29-36.23-3.29-63.8-5.73-82.72-7.32-96.07-8.09-155.56-13.28-178.49-15.57-32.92-3.29-61.76-6.08-86.53-8.39-15.78-1.47-33.33-2.98-52.65-4.52-19.2-1.53-36.75-3.05-52.64-4.54-98.81-9.29-151.53-14.25-158.18-14.89-4-.38-19.26-1.79-45.77-4.23-14.2-1.31-26.29-2.44-36.26-3.39-4.3-.41-9.81-1.03-16.52-1.86-.17,0-.3-.14-.3-.31,0-.17.14-.3.31-.29h0Z"/>
</svg>