<svg class="block size-full" fill="none" preserveAspectRatio="xMidYMid meet" viewBox="0 0 581.539 134" xmlns="http://www.w3.org/2000/svg" data-fg-bi4c0="1.50:1.15603:/src/imports/EdgeSm21Vectorized.tsx:3:5:62:11625:e:svg:e:1"><g id="Edge_SM_2 1 [Vectorized]" data-fg-bi4c1="1.50:1.15603:/src/imports/EdgeSm21Vectorized.tsx:10:7:250:11426:e:g:etetetetetetetetetetetetetetetetetete"><path d="M217.044 23.2234C217.878 24.77 218.444 26.2293 218.846 27.9427C220.831 36.4196 223.41 44.7361 225.605 53.1512C235.046 51.2019 247.199 47.082 256.179 45.6971L256.236 45.6889C251.977 50.1773 246.94 54.7413 242.477 59.1374C239.465 62.3409 236.458 65.0184 233.141 67.8801C239.725 75.2725 246.196 82.7643 252.553 90.3529C249.365 89.5705 244.306 87.7601 241.147 86.579C237.249 85.1215 228.541 82.6036 225.135 80.7651C224.04 86.8862 219.544 104.794 217.106 109.976C216.54 107.375 216.212 104.649 215.492 102.061C213.64 95.3961 211.36 88.0883 210.508 81.1793C204.658 83.3242 198.992 85.2109 193.072 87.1227C189.234 88.3622 185.916 89.7743 181.95 90.7194C183.263 88.9348 185.918 86.3758 187.496 84.5608C192.271 78.9652 197.141 73.4507 202.102 68.0198C200.641 66.1213 198.466 64.3135 196.771 62.553C193.478 59.1323 190.151 55.7491 186.783 52.4022C185.142 51.1536 182.418 49.0883 181.329 47.3761L181.22 46.8889C181.971 46.4364 182.278 46.5514 183.207 46.781L201.454 51.3771C203.261 51.8151 208.736 52.8789 209.955 53.4603C210.821 47.6441 212.719 41.9017 214.254 36.243C215.414 31.9556 216.345 27.6097 217.044 23.2234Z" fill="#bc0000" data-fg-bi4c2="1.50:1.15603:/src/imports/EdgeSm21Vectorized.tsx:11:9:292:1134:e:path"/><path d="M217.044 23.2234C217.878 24.77 218.444 26.2293 218.845 27.9427C220.831 36.4196 223.41 44.7361 225.605 53.1512C235.046 51.2019 247.199 47.082 256.179 45.6971L256.236 45.6889C251.977 50.1773 246.94 54.7413 242.477 59.1374L241.57 59.3949C240.514 58.7579 239.703 58.8234 238.818 58.3823C231.453 54.7066 226.139 60.9203 218.204 60.9288C211.986 60.9354 210.795 58.5432 206.204 54.9528C205.49 54.3938 205.408 53.9634 205.39 53.213C206.846 52.5987 208.183 54.1593 209.955 53.4603C210.821 47.6441 212.719 41.9017 214.254 36.243C215.414 31.9556 216.345 27.6096 217.044 23.2234Z" fill="#bc0000" data-fg-bi4c3="1.50:1.15603:/src/imports/EdgeSm21Vectorized.tsx:12:9:1435:595:e:path"/><path d="M181.329 47.3761C182.891 47.8988 183.914 49.5428 185.236 50.4127C186.428 51.1974 186.134 49.8789 187.271 50.9589C187.331 51.544 187.07 51.8932 186.783 52.4022C185.142 51.1536 182.418 49.0883 181.329 47.3761Z" fill="#bc0000" data-fg-bi4c4="1.50:1.15603:/src/imports/EdgeSm21Vectorized.tsx:13:9:2039:235:e:path"/><path d="M140.747 68.5989C145.105 63.4271 148.931 57.4244 153.446 52.3048C154.66 50.9279 158.349 44.9709 159.94 44.7682C164.29 44.2137 169.452 44.5391 173.865 44.5928C174.406 58.8172 173.897 76.1018 173.924 90.609L161.486 90.5144C161.35 85.8693 161.374 81.0203 161.331 76.3587C161.276 71.0509 161.382 65.7429 161.647 60.4414L150.596 74.0103C148.636 76.403 145.267 80.7515 142.914 82.5116C141.487 82.5758 139.997 82.4969 138.566 82.4475C134.071 79.6332 124.795 65.5964 120.437 61.2309C120.797 64.5942 120.694 69.3705 120.691 72.831L120.657 90.509L108.329 90.5536C108.054 84.1875 108.159 77.2973 108.133 70.8911C108.048 62.1144 108.055 53.3374 108.156 44.561C112.759 44.7259 117.443 44.6157 122.055 44.5558C125.016 47.459 130.527 55.4113 133.316 58.9083C135.158 61.217 139.309 66.3854 140.747 68.5989Z" fill="#FFFFFF" data-fg-bi4c5="1.50:1.15603:/src/imports/EdgeSm21Vectorized.tsx:14:9:2283:818:e:path"/><path d="M76.58 43.2746C83.1195 43.1105 94.9289 44.5442 100.667 47.6245C99.3651 50.7338 97.9922 53.8126 96.5491 56.8589C91.3476 54.8338 84.9831 53.7116 79.4539 53.5268C75.5859 53.3973 70.6124 53.1319 67.5281 55.8735C65.8198 57.392 68.238 60.0894 69.8514 60.4865C79.1578 63.3749 91.9425 61.1574 99.5108 68.3761C104.313 73.2338 104.266 81.6722 99.2714 86.3105C93.2799 91.8743 83.4361 92.5767 75.5967 92.5352C67.3739 91.855 60.463 90.8949 52.8919 87.257C54.5284 84.2394 55.4566 80.6172 57.1484 77.3146C63.6964 81.4007 82.1657 84.6397 89.1328 79.2897C89.5389 78.978 89.8748 78.0919 89.7822 77.5931C89.0459 73.6188 83.1266 73.7116 80.0431 73.1262C72.9312 71.9296 63.0334 71.9046 57.4068 66.9344C55.0798 64.9043 53.6796 62.0145 53.5286 58.9302C52.809 46.5701 67.1269 43.7286 76.58 43.2746Z" fill="#FFFFFF" data-fg-bi4c6="1.50:1.15603:/src/imports/EdgeSm21Vectorized.tsx:15:9:3110:802:e:path"/><path d="M391.667 55.5581C401.676 43.422 418.152 44.1107 432.417 44.2836C438.86 44.3617 445.434 44.2336 451.86 44.6882C449.551 48.2147 447.643 51.9883 446.169 55.9382C440.022 55.8124 433.868 55.738 427.718 55.715C419.872 55.6852 414.701 55.187 407.534 58.914L407.401 58.6014C407.79 57.9715 409.568 57.2771 410.337 56.9188C404.632 57.0173 399.047 55.7369 393.376 54.7427C392.882 55.093 392.638 55.315 392.198 55.7344L391.667 55.5581Z" fill="#333333" data-fg-bi4c7="1.50:1.15603:/src/imports/EdgeSm21Vectorized.tsx:16:9:3921:451:e:path"/><path d="M419.452 63.6171C427.161 64.1894 439.866 63.7937 447.907 63.7207C447.385 66.4688 446.879 69.2198 446.385 71.9736C444.037 74.0489 446.524 77.2022 442.472 76.4459C440.286 76.0376 433.195 76.4359 431.523 75.7954C431.461 74.0287 432.346 75.2089 431.341 73.2208C431.463 73.2858 417.357 73.0025 415.999 72.9321C416.865 70.1053 418.33 66.3377 419.452 63.6171Z" fill="#333333" data-fg-bi4c8="1.50:1.15603:/src/imports/EdgeSm21Vectorized.tsx:17:9:4381:380:e:path"/><path d="M391.667 55.558L392.198 55.7343C392.638 55.315 392.882 55.093 393.377 54.7427C399.047 55.7369 404.632 57.0173 410.337 56.9188C409.568 57.277 407.79 57.9715 407.401 58.6014L407.534 58.914C405.064 60.8987 403.701 62.1746 402.131 64.8991C399.771 66.2201 401.117 68.476 399.433 70.1541C396.824 71.1307 389.464 70.6765 386.806 69.9063C385.284 68.0149 387.822 66.5926 386.826 64.5125C387.493 61.4609 389.364 57.6921 391.667 55.558Z" fill="#333333" data-fg-bi4c9="1.50:1.15603:/src/imports/EdgeSm21Vectorized.tsx:18:9:4770:453:e:path"/><path d="M379.698 52.2401C383.716 57.8786 383.427 66.7465 381.286 73.0416C381.152 72.6836 381.042 71.4637 380.718 71.3735C376.856 70.2941 371.279 70.9635 367.599 69.1653C367.29 69.0134 367.562 65.7633 367.417 64.5934C367.44 62.4781 367.133 61.3246 366.253 59.4651L366.242 59.1834C367.216 59.1164 379.312 55.0763 380.275 54.5295C379.826 53.6213 379.636 53.3223 379.693 52.3156L379.698 52.2401Z" fill="#333333" data-fg-bi4c10="1.50:1.15603:/src/imports/EdgeSm21Vectorized.tsx:19:9:5232:411:e:path"/><path d="M379.698 52.2401C383.716 57.8786 383.427 66.7465 381.286 73.0416C376.862 90.9772 356.181 93.2711 341.058 92.8836C332.934 92.6755 323.893 92.638 315.792 92.8592C316.402 90.3626 319.264 76.9844 319.926 75.7597C320.661 71.095 321.692 65.6643 322.661 61.0379C327.249 60.9944 334.073 61.2164 338.443 60.8828C337.44 62.6527 335.805 73.949 334.729 77.0506C334.359 78.9155 334.056 80.1723 333.505 81.9893C337.114 82.0131 340.805 82.0537 344.406 82.0449C355.44 82.0185 362.695 81.4504 366.341 69.6826L367.417 64.5934C367.44 62.4781 367.133 61.3246 366.253 59.4651L366.242 59.1834C367.216 59.1164 379.312 55.0763 380.275 54.5295C379.826 53.6213 379.636 53.3223 379.693 52.3156L379.698 52.2401Z" fill="#333333" data-fg-bi4c11="1.50:1.15603:/src/imports/EdgeSm21Vectorized.tsx:20:9:5652:711:e:path"/><path d="M322.66 61.0378C327.249 60.9944 334.073 61.2164 338.443 60.8828C337.44 62.6527 335.805 73.949 334.729 77.0506C334.399 75.9723 334.947 75.9945 334.328 75.1555C333.544 75.0207 331.508 75.5317 330.356 75.4664C327.198 75.2876 323.981 74.5943 320.815 74.6139C321.053 74.6124 320.44 75.4894 319.926 75.7597C320.661 71.095 321.692 65.6643 322.66 61.0378Z" fill="#333333" data-fg-bi4c12="1.50:1.15603:/src/imports/EdgeSm21Vectorized.tsx:21:9:6372:375:e:path"/><path d="M260.384 69.4688C260.478 70.3247 260.404 71.0279 260.857 71.6284C264.198 72.896 270.498 73.6725 274.078 74.0736C274.627 75.6563 273.661 76.3428 274.25 77.9764C274.226 78.8085 273.675 80.9922 273.469 81.903C279.427 82.1942 287.598 81.8047 293.842 81.8516C298.635 81.8873 307.333 82.121 311.816 81.7854C311.055 86.0487 310.45 89.0328 308.94 93.1715C304.391 92.5508 288.589 92.7464 283.363 92.8501C275.098 93.0142 263.549 92.3797 255.674 92.86C256.745 85.4812 258.744 76.7689 260.384 69.4688Z" fill="#333333" data-fg-bi4c13="1.50:1.15603:/src/imports/EdgeSm21Vectorized.tsx:22:9:6756:517:e:path"/><path d="M265.35 43.9225C283.73 44.1436 302.159 43.8401 320.536 43.9653C318.819 47.652 316.678 51.9716 315.19 55.6966L291.071 55.6881C288.56 55.6895 280.637 55.8104 278.572 55.4025C277.974 55.3426 276.287 55.4808 275.893 55.8967L277.114 56.3268L277.121 56.4376C274.02 57.0587 267.473 56.8677 264.202 56.5701C263.594 55.857 263.577 54.7583 263.473 53.8121C263.863 50.3542 264.535 47.3031 265.35 43.9225Z" fill="#333333" data-fg-bi4c14="1.50:1.15603:/src/imports/EdgeSm21Vectorized.tsx:23:9:7282:421:e:path"/><path d="M260.384 69.4688C260.391 68.296 263.088 55.6841 263.473 53.8121C263.577 54.7583 263.594 55.857 264.202 56.5701C267.473 56.8677 274.02 57.0587 277.121 56.4376L277.114 56.3268L275.893 55.8967C276.287 55.4808 277.974 55.3426 278.572 55.4025C278.114 58.0711 277.58 60.7264 276.972 63.3647C287.907 63.2588 299.723 63.0825 310.632 63.3241C309.783 66.8555 308.182 70.2907 307.174 73.7687L286.803 73.7329C283.588 73.7173 278.015 73.4564 274.986 73.736C274.809 75.3517 274.727 76.4047 274.25 77.9764C273.661 76.3428 274.627 75.6563 274.078 74.0736C270.498 73.6725 264.198 72.896 260.857 71.6284C260.404 71.0279 260.478 70.3247 260.384 69.4688Z" fill="#333333" data-fg-bi4c15="1.50:1.15603:/src/imports/EdgeSm21Vectorized.tsx:24:9:7712:662:e:path"/><path d="M456.593 44.3614C462.224 44.0741 469.925 44.2512 475.732 44.2441L513.43 44.214C512.805 46.5925 511.93 49.1984 510.86 51.4128C510.258 53.1006 509.829 54.1374 509.043 55.7474C497.437 55.7431 482.547 56.169 471.302 55.6898C470.961 58.6171 470.49 60.6495 469.794 63.5197C480.934 63.598 492.71 63.3119 503.747 63.5821C503.162 65.3199 500.907 72.5153 500.152 73.6296C497.426 72.9286 495.257 73.1518 492.505 73.1047C482.277 72.9295 472.049 73.6901 461.889 72.2481C459.683 71.935 456.074 72.0982 454.112 71.2491C453.759 70.2186 455.659 65.8667 454.901 63.7908C455.239 61.8975 455.773 57.5493 456.27 55.9759C456.528 51.8339 456.605 48.5018 456.593 44.3614Z" fill="#333333" data-fg-bi4c16="1.50:1.15603:/src/imports/EdgeSm21Vectorized.tsx:25:9:8383:675:e:path"/><path d="M391.667 55.558L392.198 55.7343C392.638 55.315 392.882 55.093 393.377 54.7427C399.047 55.7369 404.632 57.0173 410.337 56.9188C409.568 57.277 407.79 57.9715 407.401 58.6014L407.535 58.914C405.064 60.8987 403.701 62.1746 402.131 64.8991C400.03 70.5422 398.32 79.1832 405.697 81.1285C412.12 82.8214 422.641 81.9728 429.427 81.7292C429.833 80 430.91 74.5335 431.341 73.2208C431.463 73.2858 417.357 73.0025 415.999 72.932C416.865 70.1053 418.33 66.3377 419.452 63.6171C427.161 64.1894 439.866 63.7936 447.907 63.7207C447.385 66.4688 446.879 69.2198 446.385 71.9736C445.519 76.7752 441.973 88.5961 441.865 92.5506C427.133 92.5156 410.011 94.8127 395.824 91.1387C384.026 88.0843 383.438 74.1451 386.826 64.5125C387.493 61.4609 389.364 57.6921 391.667 55.558Z" fill="#333333" data-fg-bi4c17="1.50:1.15603:/src/imports/EdgeSm21Vectorized.tsx:26:9:9067:779:e:path"/><path d="M456.593 44.3614C462.224 44.0741 469.925 44.2512 475.732 44.2441L513.43 44.214C512.805 46.5925 511.93 49.1984 510.86 51.4128L510.528 51.28C510.985 49.0167 512.723 47.6254 510.715 45.4362L511.013 45.0002L510.886 45.0808C510.38 44.687 509.105 44.8565 508.438 44.8855C502.696 48.6863 496.035 48.8981 489.316 49.6745C486.252 50.0288 482.232 49.2975 479.049 49.9579C473.367 51.4549 470.68 52.2966 464.672 51.4705C462.67 51.1951 460.626 53.3297 457.457 52.1408C456.565 53.4163 457.207 54.295 456.27 55.9759C456.528 51.8339 456.605 48.5018 456.593 44.3614Z" fill="#333333" data-fg-bi4c18="1.50:1.15603:/src/imports/EdgeSm21Vectorized.tsx:27:9:9855:577:e:path"/><path d="M454.901 63.7908C455.659 65.8667 453.76 70.2186 454.112 71.2491C456.074 72.0982 459.683 71.935 461.889 72.2481C472.049 73.6901 482.277 72.9295 492.505 73.1047C495.257 73.1518 497.426 72.9286 500.152 73.6296C497.256 73.9405 491.528 73.7616 488.305 73.7545C481.493 73.7315 474.684 73.7525 467.875 73.8173C467.608 77.278 467.245 78.4772 466.021 81.7494C467.963 82.0137 471.918 81.9047 474.034 81.8993L487.874 81.8629C491.736 81.8541 502.358 82.1693 505.59 81.7698C504.976 85.1618 503.511 89.3698 502.429 92.7331C489.064 92.4268 475.516 92.9949 462.13 92.7785C457.735 92.7076 453.106 92.6556 448.722 92.8143C449.165 89.5109 450.48 85.4508 451.133 82.0676C452.326 75.9187 453.51 69.9057 454.901 63.7908Z" fill="#333333" data-fg-bi4c19="1.50:1.15603:/src/imports/EdgeSm21Vectorized.tsx:28:9:10441:726:e:path"/><path d="M327.32 43.8611C334.692 44.0829 342.092 43.9193 349.471 43.9838C357.144 44.0508 365.029 43.7524 372.336 46.5156C375.573 47.7403 377.643 49.4985 379.698 52.2401L379.693 52.3156C379.636 53.3223 379.826 53.6213 380.275 54.5295C379.312 55.0763 367.216 59.1164 366.242 59.1834C364.456 57.1274 362.851 56.6357 360.355 55.9728C356.644 55.103 349.534 55.3534 345.465 55.3528C338.258 55.3519 331.582 55.424 324.359 55.0601C325.483 51.4918 326.406 47.5175 327.32 43.8611Z" fill="#333333" data-fg-bi4c20="1.50:1.15603:/src/imports/EdgeSm21Vectorized.tsx:29:9:11176:489:e:path"/></g></svg>