<svg xmlns="http://www.w3.org/2000/svg" id="Layer_1" data-name="Layer 1" viewBox="0 0 5000 5000"><defs><clipPath id="clippath"><path d="M2240.3 1847.3H2647v500h-406.7z" style="fill:none"/></clipPath><style>.cls-2{fill:#45c7f0}</style></defs><path d="M4824 1159.4h.1" style="fill:#111110"/><g style="clip-path:url(#clippath)"><path d="M2503.5 2018.8c33.8-7 67.8-17.1 101.4-25.4 5-1.3 33.8-11 37-10.2.6 1.5.2 3.9 0 5.6-10 8.8-19 17-28.5 26.6s-19.3 20.5-29 30l-46.6 47.3c-4.5 4.6-9.4 9.1-13.8 13.7q33.2 39.4 66 79.2c2.9 3.5 5.4 7.4 8.3 10.9l21.6 25.6c3.5 4.3 9.3 9.6 11.4 14.6 0 1 0 1.3-.6 2-3.5.5-25.6-10.4-31.7-12-17.7-4.8-34.5-14-51.5-20.8-22-8.9-44.5-16-65.5-27.8-6.4 28.6-12.4 57.6-19.8 85.9q-2 7.4-3.6 15l-9.3 41.8c-1.3 5.9-4.4 21.4-6.6 26.5h-2.6c-1-9-3-16.2-4.8-25-2.2-9.6-3.6-20.2-6.1-29.8-10-37.4-17.3-75.6-27.6-112.9-6 3.3-12.6 5.7-18.8 8.3-13.6 6.2-28.7 9.5-42.2 15.5-25.5 11.4-51.3 20.6-77.2 30.5-5 2-8.8 4-14.1 5 3.4-8.6 8.3-11.1 13.7-17.7l40.1-48.2 26.2-32c9.2-11.6 19-24 29.3-34.3-2.9-2.7-6.7-7.4-9.8-10.7l-26.7-26.8c-9.2-9.5-21.9-21-30.9-30.5-8-8.5-42.4-46.7-50.9-49.9v-4.6c12.4.8 24.6 6 36.6 9.2 12.1 3.3 24 6.2 36.1 9.6 21 6 42.6 9.1 63.6 15 4 1.2 7.6 2.1 11.7 3.6 1.8.8 8 4 9.3 4.2.4.5.4.5 1 .8.8-1.4 2.6-7.6 3.2-9.5q2.1-.1 4.2-.8c7.4-2.3 15.6.3 22.8 2 16.6 3.6 32.3 8 49.3 5.8.4 0 .7-1 2-1.2.9 1.4 1.7 3.1 3.3 3.1q1-1.3 1.2-3.2l1.3.6q8.7-2.4 17.6-4.6" style="fill:#e5242e"/><path d="M2503.5 2018.8c33.8-7 67.8-17.1 101.4-25.4 5-1.3 33.8-11 37-10.2.6 1.5.2 3.9 0 5.6-10 8.8-19 17-28.5 26.6s-19.3 20.5-29 30l-1.2-.5c-.4-1.4-.1-1.3.4-3-.7-1-9 1.3-11.8 0-1.5-.8-6.8-2.7-8.3-3-11-2.7-22-4.7-33-7-5.7-1.4-10.7-4.8-16.3-6.4-2-.6-4.6-1.2-5.6-3.4-3.6-1.2-3.1.6-5-3.3Z" style="fill:#f04d52"/><path d="M2397.6 2025.8c.6-3 2.8-7.4 3.7-10.9a20871 20871 0 0 0 31.7-134c1-4.6 4.9-26 6.6-29.1l.8.2a14 14 0 0 1 3 6.4c6.3 23.8 11.8 48.1 18 72 6.3 24.6 13.6 48.9 18.6 74 1.2 6 3.6 12.4 4.6 18.4-.3 1.3-.4 2.4-1.2 3.2-1.6 0-2.4-1.7-3.3-3-1.3 0-1.6 1.1-2 1.2-17 2-32.7-2.3-49.3-6-7.2-1.6-15.4-4.1-22.8-1.9q-2.1.9-4.2.8c-.6 1.9-2.4 8.1-3.3 9.5z" style="fill:#f15a5f"/></g><path d="M2108.4 1016.4q.7-.2 1.1.3l1.8 3q.3.7-.4 1.3l-288.2 185.7q-.6.4-.3 1 .3.4.8.4a1063 1063 0 0 1 236.4 7.4q35.5 5.1 69.7 15.3 2.8.8 5.3-.4 25.8-12.3 74.4-33.6 71-31 173.2-75.2 50.1-21.7 114.8-48.1 2.8-1.2 4.9-1.1 1 .1 1.1 1.2 0 .7-.6 1l-311.6 172.8-.8.6c-12 10-29.4 14-42.8 24.2-12.5 9.5-28.2 13.7-43.4 24.2-9.7 6.8-24.5 10.5-34.3 18.3-11.5 9.1-28.9 13.6-42.2 23.5-8 6-19 9.4-29.6 15.4l-58.7 33.3q-2.3 1.3-5 1.9a380 380 0 0 1-85 4.9c-3-.1-5.5 2.1-5.6 5v34.6c0 3.3-1.8 6.3-4.7 8a3084 3084 0 0 1-87.6 48.8q-34.5 18.4-59.8 32.8a704 704 0 0 1-74.8 37.5q-1.6.5-2.5-1l-.2-.7v-225.2q-.1-1.3-1.5-1.4l-.9.2-92 59.4q-1.5 1-3.3 1h-92.7c-1.3-.1-2.4-1.2-2.3-2.4q0-1.3 1.1-2zm438.8 840a272 272 0 0 1-41-76.8 477 477 0 0 1-24.4-219.4q.6-4.7 8-14.7 1.2-1.6 3-2.8c9-5 17.4-13.4 28.5-20.3q43.7-27 72-46.8a2990 2990 0 0 1 193-124.4 8133 8133 0 0 1 202.3-115.7q210.6-116.4 363.7-202.2c.8-.5 1.9-.2 2.4.5l1 1.5q.9 1.5-.5 2.5L3081 1210.6a2 2 0 0 0-.7 3q.5.7 1.3 1 11 3 39.8 12 16 5.1 30 12a886 886 0 0 0 34.8 16.8l28.5 16.3 1.4 1.3q6 6.6 11.2 7.4 3.1.7 5.2 2.8 8.5 9.2 16 11.4a2 2 0 0 1 .9 3.3 53 53 0 0 1-5 4.7c-5 4.2-3.8 10.1-9.2 14.2-6.9 5.3-6.1 13.2-13.9 18.9a7 7 0 0 0-2.9 4.5c-1.1 6-9 12.1-13.5 18.4a5663 5663 0 0 1-63.9 87.1q-.8 1-1.2 2.4a24 24 0 0 1-8.8 11.8 5 5 0 0 1-5.7 0l-39.6-27.2q-1-.5-1.9.1-2.4 2.1-5.8-2.4a15 15 0 0 0-5.7-4.7 344 344 0 0 0-37.7-15.8 299 299 0 0 0-47.5-12.3q-48.7-8.6-97.7-.2c-9.8 1.7-21.5 6.6-31.4 7.4a11 11 0 0 0-5.2 1.8q-5.4 3.3-25.2 12a192 192 0 0 0-69.8 51.5q-6.6 7.9-16.5 21.5a187 187 0 0 0-31.5 78 268 268 0 0 0 9.4 134.3q5.9 17.6 18.2 37.5a15 15 0 0 1-2.3 19q-6.7 6.7-23.2 15.4-40 21-79 43.6-19 11-73.3 39.6a10 10 0 0 1-12.5-2.6M1755.7 1047q-30.6 22.2-80 53-39.7 24.8-79 52a2979 2979 0 0 1-220.5 137.3 7559 7559 0 0 1-159.4 88.4 121 121 0 0 1-57 14.8q-36.8.3-73.2 0c-2 0-3.7 1.5-3.7 3.5v50.7a6 6 0 0 1-2.5 4.8c-29.7 21.9-67.6 38-96.2 54.8a2607 2607 0 0 1-119.8 66.2 5.4 5.4 0 0 1-7.2-2.1q-.7-1.1-.7-2.4v-348.7c0-5.8 4.7-10.7 10.8-11.2a5879 5879 0 0 1 162.5.3q246.2-1.4 275.3-.5 54.6 1.8 99-.8c27.2-1.6 43.8-13.7 76.1-30q132.3-66.6 273-132.7 1-.3 1.7.5l1 1.4q.1.5-.2.8Zm1900.9 258.7-267.3 135.6c-1.5.8-3.4.2-4.2-1.2l-.3-1.4V1212c0-2.9 2.4-5.2 5.4-5.2h486.5q2.8 0 5.4-1l418.8-154.8c1-.4 2.3 0 2.7 1.1l.1.7v1.8q0 1.4-1.3 2.2l-262.8 146.4-228.8 127.2q-15.5 8.6-32 15.5a35 35 0 0 0-7.4 4.3c-12.7 9.7-28 14.7-43.4 23.9q-25.8 15.3-32.3 16.6-18.7 4-81.1 3a3.2 3.2 0 0 0-3.3 3.5c1.1 9.2.5 16.1.9 25.3a22 22 0 0 1-12.1 21.6L3389 1561c-1.1.7-2.5.3-3.2-.7q-.3-.5-.3-1.1V1469q0-2.1 1.9-3l271-158.3v-.3l-.7-1.3q-.4-.7-1-.4zm-509.4-204.3q1-.3 1.7.6l1.7 3q.4.6-.3 1l-636.1 349.8c-1.7.9-3.7.3-4.6-1.2l-.4-1.4c-.4-7.6 8.6-18.6 7.2-24q-.9-3.3 3.3-5 2.2-1 4-4.8 6.6-13.5 14.7-28.7 2-3.5 4.4-4.7 3.1-1.5 3.8-5.2c1.8-9.3 13.5-14 17.3-22.1q4.5-9.8 26-29.8 46.5-43.4 69.9-56.4 15.9-8.7 52.8-27.7a360 360 0 0 1 52.7-20.7 804 804 0 0 1 59.8-15.4q34.1-6.6 84.9-10 32.1-2.2 60-14.7a10419 10419 0 0 0 137.3-62.7c12.3-5.8 25.6-15 40-20Zm-746.3 412.2-203.2 110.1c-3 1.7-7 .6-8.6-2.3q-.8-1.2-.8-2.5-3-47.8-16.5-86.1c-15.9-45.3-45-81-89.5-103.4a323 323 0 0 0-75.4-26.8c-2-.5-3.3-2.4-2.9-4.4q.5-1.5 1.8-2.2l219.7-121.8q2-1 4-.2a81 81 0 0 1 29.2 18.8q2.3 2.3 5.5 3l1.5.5q3 .9 5.5 3a560 560 0 0 1 47.5 46.8q63.7 69 85.3 160.7a6 6 0 0 1-3.1 6.8m1452.9-121.3q-2-4.4 5.6-9 91.8-54.3 181.7-101.5c3-1.6 6.6-.6 8.3 2.3q.8 1.3.7 2.8v100.5c0 3.5-2.9 6.3-6.4 6.3h-187.8q-1.6-.1-2.2-1.4" class="cls-2"/><path d="m3295.6 1913.6 86.1-54.3c1.7-1 2.7-2.9 2.7-4.8v-206.3c0-1.5.8-3 2.2-3.7a2161 2161 0 0 1 44.2-26q43.8-24.3 153.2-82.5a94 94 0 0 1 40.6-12q41-1.4 85.2.3c55 2 138.3-1.4 223 2.3a263 263 0 0 0 65.6-5.2 25 25 0 0 0 5.2-1.8c36.4-17.2 58.2-30 88.3-40.7 21.8-7.8 41.7-20.6 63.4-27.4 12.5-3.8 28.2-13 44.6-19.5q42.8-17 82.5-35.2.8-.2 1.1.4l1.4 3.7q0 .3-.2.5-24.3 12.6-354 197.8-36.6 20.4-163.7 88.5-14.4 7.5-22 8.2-62.8 4.7-129.7.6a3 3 0 0 0-3.4 2.7v79.3q0 3.1-2.8 4.7l-315.7 175a5 5 0 0 0-2.8 4.6v54.4c0 1.8-1.5 3.1-3.3 3.1h-98.9q-7.6 0-14.5 3.8l-360.5 199.8a1.6 1.6 0 0 1-2.3-.8l-.5-1.5c-.6-1.5 0-3.2 1.3-4l308.8-194.6c1.1-.8 1.4-2.2.7-3.3l-14.4-21a4 4 0 0 0-5.4-1.2 146 146 0 0 1-13 7q-23.2 9.2-30 11.4a471 471 0 0 1-206.7 17.4 489 489 0 0 1-181.7-61.6q-18.7-10.8-49.5-34.8a5 5 0 0 0-4.7-.6q-8.2 3.8-27.3 11.7-43.4 17.9-85.8 37.1-16.2 7.4-23.6 9.4c-10.2 2.7-19.3 8.9-31.2 13.6q-57.3 22.5-94.4 40.4c-7.2 3.5-14.2 4.5-21 6.8a2 2 0 0 1-2.5-1.2q-.5-1.4.9-2.3l174.5-95 1-.6c13.2-11 31.7-15.8 46-26.3q6.8-5 25.2-12.8 4-1.7 7.5-4.4c10.7-8.3 24.5-13.4 36-19.8q51-28.4 164.6-89.4c1.5-.9 3.5-.7 5 .3q19.8 14.5 44.5 21.4 2.4.6 4.6 1.8 9.6 5.1 23.7 9a276 276 0 0 0 92.8 11q53.1-3.5 103.5-26.3a4 4 0 0 0 2.5-4v-103.1c0-1.5-1.2-2.6-2.7-2.6l-145.4 3.4q-2.4 0-4.3-1.3a9 9 0 0 0-6.5-1.3c-2.1.3-4.2-1-4.7-3.1l-3.4-14.1-.3-3 1.8-141.8q.1-1.3 1.4-1.4 186.2-3.3 347.4-.3 22.7.5 39.8 3c2 .4 3.5 2 3.6 4 1 25.3 3 53 3 76.7a42731 42731 0 0 0 0 280c0 1.1.9 2.1 2.1 2.1q.8 0 1.3-.3m-1454.8-420.1q1.2 8.7 1.5 17.5 4.3 126 .1 259.7a24 24 0 0 1-12.3 20.8c-46 27-84.5 46.7-126.6 70.7a2605 2605 0 0 1-80.8 44.5 6 6 0 0 1-7.9-2.2q-.7-1.2-.7-2.6v-282.2a9 9 0 0 1 4.2-7.6q34.5-22.5 76.1-43.4 19-9.5 44.7-24 37.7-21 44.5-24.3c18.5-8.8 35-21 54-28.7 1.2-.4 2.5.1 3 1.3zm-1295.5 379v-1.8q.1-1.8 1.7-2.7l472.4-258.8q25-13.7 27.9-14.6a17 17 0 0 0 6.2-3.3c12.8-10.7 31.7-15.6 45-25.6q5.5-4.2 28.6-14.7a33 33 0 0 0 6.4-3.7q20.6-15 47.2-21.8H1478q1.7.2 1.8 1.9v42.9q0 3.1-2.9 4.9a2644 2644 0 0 1-215 115q-12.5 6-33.1 6.1-72.5 1-86 .3-23-1.2-56 .5a3.5 3.5 0 0 0-3.4 3.5v81.2a5 5 0 0 1-2.6 4.4l-221 122.4a2 2 0 0 1-2.6-.7l-.3-.9v-152.7q-.1-1.6-1.7-1.7l-.7.1L549.1 1875c-1.4.5-3 0-3.6-1.4zM1208 2230q1.2-4.5 6.3-7.4 50.2-28.2 236.5-130l16.8-10.1c9.2-5.7 22-9.4 30.7-16.1 11.8-9.3 28.6-13.8 41.8-23.3a153 153 0 0 1 26.6-13.7q3.5-1.5 6.6-3.8c12.7-9.3 30.4-14 43.6-24.5a49 49 0 0 1 6.9-4.5l275.6-147.8q5.7-3 12.1-4a350 350 0 0 1 52.8-3q30.7.5 50.5-4 45.8-10.5 66.5-21 32.9-16.5 52.6-39.6 9.7-11.2 16.3-22.9a689 689 0 0 0 29.4-57.8q2.3-5 7.4-8l219.8-121.7c2.2-1.3 5-.6 6.3 1.5q.5.7.6 1.7c1.4 9.6 3.4 16.5 3.6 26.3q1.5 67.7-15 133.3a379 379 0 0 1-54 123.3q-73.3 107.5-203.8 149.5a549 549 0 0 1-149.3 27.7l-33.4 1.2a4960 4960 0 0 1-104.3-1.5q-55.5-1.1-91 3.2-18.6 2.2-39.8 10.5-37.4 14.4-54.2 19.3-7 2.1-18.5 7.7a42 42 0 0 1-8 3q-14.5 3.6-24.3 7.7-14.8 6.1-23.5 8.8-18 5.7-25.4 8.8a237 237 0 0 1-27.5 10q-14.6 4.4-24.8 9.5-2.4 1.2-5 2a236 236 0 0 0-38.8 13.9q-2.5 1.2-5.2 1.9-13.7 3.6-29 9.7-14.6 6-28.6 10.4a179 179 0 0 0-30.8 12 5 5 0 0 1-2.3.8l-4.3.4q-20.6 7.5-99.5 37.2-8 3-13.4 5.8c-7 3.6-14 3.2-20.8 7q-13.5 7.7-32.5 12.7-1.7.4-2.3-1.2zm87.7-534.6q-2-4 5.3-8.3 85.7-51 170-95.5a6 6 0 0 1 7.7 2.2q.7 1.2.7 2.6l.2 94.2a6 6 0 0 1-6 5.8l-176 .4q-1.3-.1-2-1.3Zm2625.1-.7q3.7-6.1 11.3-11 24.5-15.7 57.2-34c3.5-2 8-.8 10 2.5q1 1.6 1 3.5v35.8c0 3-2.6 5.4-5.8 5.4h-72.3q-1.5-.2-1.6-1.5zM932.3 1905.3a1.2 1.2 0 0 1-1.7-.6l-1.3-4v-.1h.1l147.8-85.6c1.7-1 3.9-.4 4.9 1.1q.5.9.5 1.8v1.8a8 8 0 0 1-3.5 6.5 816 816 0 0 1-23.8 15.8 3172 3172 0 0 1-123 63.3m2234.5 233.1q5-5.2 21.5-15.4a10140 10140 0 0 1 444.8-255.6q31.5-17.6 43.6-21c11-3.2 29.4-3.5 44-2.5q33.7 2.5 63.4 1.8c92.7-2.2 184.8-1 264.8-2.6 2.5 0 4.5 1.8 4.6 4.2v178.4c0 2-1.7 3.7-3.8 3.7-283.5 0-436.2 1.5-533-1.1q-45.6-1.3-88.8 2.6-2.6.3-5 1.1-34 11.8-149.7 62.3-77 33.7-93.4 43.6-2.1 1.3-4.7 1.6l-7.3.8q-1.2.1-1.4-1 0-.5.3-1ZM525.7 2249.6q-1.3.3-1.9-1-.3-.9.5-1.6 26.7-18 77.3-45.3t88-47q3.3-1.7 6.9-4.7 2.8-2.3 6.2-3.8 8.1-3.6 40.8-21.3a74722 74722 0 0 0 341.2-186.1q105.7-58.2 161.2-88.1c11.6-6.3 37.1-4.6 49.7-4.9q108-2.3 231-1.2c2.4 0 4.4 2 4.4 4.3v177.5c0 2.3-2 4.2-4.4 4.2-88.4.5-198 2.1-310-.8q-35.3-.9-57 1.7-20.9 2.4-59.4 16.3A48141 48141 0 0 1 901 2119a1550 1550 0 0 1-58.8 20c-8.6 2.8-15.5 8.4-23.2 8.8q-1.4 0-2.6.5z" class="cls-2"/></svg>