<?xml version="1.0" encoding="UTF-8"?>
<svg id="Layer_1" data-name="Layer 1" xmlns="http://www.w3.org/2000/svg" viewBox="0 0 1182.06 437.87">
  <g>
    <path d="m510.82,327.31s-7.33,3.14-7.75,3.46-3.14,3.14-3.14,3.14l-25.35,6.7s23.46-8.28,24.51-9.01c1.05-.73,3.46-3.35,5.13-4.61s6.7-2.62,8.59-3.67c1.17-.65,6.72-4.3,10.75-6.97v-176.33h28.19l-3.68-15.87s-1.87-.14-2.58-.57c-.72-.43-1.94-1.22-1.94-1.22l-1.44.57s-14-12.64-14.22-12.78c-.22-.14-3.66-1.94-4.38-2.44-.72-.5-11.63-5.38-17.59-8.33-5.96-2.94-15.51-8.47-15.51-8.47,0,0,11.2,5.31,20.03,9.26,8.83,3.95,15.87,6.68,15.87,6.68,0,0-5.6-21.12-6.6-23.92-.72-2.01-3.8-7.63-5.49-10.65h-54.74v177.56l-70.75-177.56h-150.26v172.53c0,27.3-5.02,62.68-29.48,62.68s-29.05-28.83-29.05-60.27V72.3h-75.56v173.17c0,29.24,5.63,71.89,20.25,92.9,14.62,21.02,39.6,36.25,80.72,36.25s72.49-14.62,88.33-43.56c15.84-28.93,19.19-71.27,19.19-71.27v111.41h63.97v-164.72l10.66,24.98v-28.33l62.14,168.07h73.92v-52.54l-12.74,8.65Z"/>
    <path d="m766.89,187.98c-4.01,4.36-8.49,7.31-14.61,12.61-6.13,5.3-19.56,13.55-19.56,13.55l-20.27,17.32-8.21-1.34v15.26l32.96-1.31,6.6-1.53,7.07,8.25,10.61,1.65s2.47,7.9,5.77,14.02c2.19,4.07,8.7,11.47,12.83,15.98v-108.58l-2.34,6.93s-4.6,1.06-5.19,1.41c-.59.35-1.65,1.41-5.66,5.77Z"/>
    <path d="m708.33,358.2c-.15-.19-2.34-4.71-4.1-8.35v21.35h16.57c-3.59-3.72-12.28-12.73-12.47-12.99Z"/>
    <path d="m639.88,321.84c-.59,2.47-2,11.51-2,11.51,0,0-9.63,12.68-9.98,13.51-.35.82-3.52,9.75-3.52,9.75,0,0,2.58-9.86,2.82-11.16.23-1.29,8.22-12.8,8.34-13.39.12-.59,2.23-11.39,2.7-12.21.37-.64,7.45-11.08,10.55-15.63v-36.56c-1.46.45-4.11,1.72-8.04,5.07-5.59,4.77-11.86,10.5-11.86,10.5l3-6.41-10.09-3-36.67,9.41,34.62-11.72,29.03-7.96v-123.35h55.44v28.47c2.24-3.73,5.21-8.84,5.5-10.14.47-2.12.12-9.78.12-9.78,0,0,6.72-5.54,7.07-5.77.35-.24,4.12-2.95,4.6-3.77.47-.82,4.6-15.56,4.6-15.56l-1.41,12.61s3.18-3.18,4.48-4.6,7.19-4.6,9.78-7.66c2.59-3.06,9.55-19.8,9.55-19.8,0,0-.12,1.41-2.47,7.78-2.36,6.36-5.19,13.08-5.19,13.08,0,0-9.9,8.25-11.55,9.66-1.65,1.41-5.89,7.07-7.19,8.49-1.3,1.41-6.72,6.36-6.84,6.84s.24,7.07.24,7.07c0,0-3.42,3.06-3.89,3.54-.39.39-5.58,9.02-7.39,12.04v10.39l8.92-4.63,2.47,1.65,19.8-12.61,8.84,3.65s-8.96,4.48-10.49,5.19c-1.53.71-18.15,12.61-18.15,12.61,0,0,44.86-15.25,60.47-20.38.21-3.52.5-8.06.5-8.06l3.47-2.39v-85.8h-107.79l5.55,28.1-4.36,12.95s-5.45-7.01-6.95-9.16c-1.5-2.15-3.41-6.11-3.41-6.11,0,0-5.45-2.59-5.73-3.27-.27-.68,1.23-12.68,1.23-12.68l-3.82-1.23,1.82-8.61h-140.82c1.35,2.33,4.55,8.02,5.56,10.94,1.29,3.73,6.89,23.76,6.89,23.76,0,0,10.27,8.54,14.07,11.13,3.81,2.58,8.26,4.02,8.26,4.02l-.29-6.82s6.38,19.21,8.56,24.7h16.97v81.13c2.99.81,11.2,3.18,18.19,6.4l11.52-5.71,20.25,3.75,15.89-.06s-10.18,1.45-15.33,3.47l-20.25-3.47-15.55,4.81s-7.64-5.27-14.72-7.27v63.6c.82.13,2.05.22,3.04-.19,1.64-.68,10.63-1.36,11.31-1.64.68-.27-7.36,5.18-9.81,6.95-1.15.83-2.95,1.8-4.54,2.61v76.78h72.97v-63.43c-2.73,3.89-8.46,12.2-8.91,14.07Zm-22.07-152.61s-5.29-6.98-8.82-11.71c-3.53-4.73-5.29-8.3-5.29-8.3,0,0,8.76,10.96,12.67,15.08,3.91,4.12,4.29,5.01,4.49,5.17.2.16-3.05-.24-3.05-.24Z"/>
    <path d="m1065.09,132.54c-18.64-35.05-49.71-60.24-99.42-60.24h-106.74v39.65l11.47-11.9s-10.36,11.92-11.47,12.88v191.52h-24.91l3.56,15.35s3.22,2.91,4.92,4.62,5.73,6.63,9.75,7.94c0,0,3.01,7.64,5.33,11.76,2.31,4.12,4.72,7.44,5.63,9.24s2.81,6.23,2.81,6.23c0,0-3.82-5.53-5.93-7.94s-3.11-5.23-5.63-10.05c-2.51-4.82-3.01-6.23-3.32-6.63-.3-.4-6.53-4.32-7.13-4.82-.6-.5-7.13-7.23-8.34-8.54-1.21-1.31-2.91-3.52-3.32-4.32s.2-3.72,0-4.02c-.14-.21.26-5.62.52-8.82h-52.8v-20.47l-8.7-5.61s-41.13-8.37-42.9-8.37-8.96.94-8.96.94l-7.31-2.36s2.71,14.38,3.54,15.2c.82.82,8.6,6.13,9.9,8.25,1.3,2.12,2,4.24,6.25,10.72,4.24,6.48,5.89,11.2,5.89,11.2,0,0,8.6,3.54,13.91,7.9,5.3,4.36,10.61,10.72,12.96,13.32,2.36,2.59,4.01,5.89,4.01,5.89,0,0-12.37-14.26-17.8-17.91-5.42-3.65-9.9-6.6-11.67-6.95-1.77-.35-3.06.24-3.06.24,0,0-.82-4.12-2.12-6.36-1.3-2.24-5.54-8.96-8.37-11.9-2.83-2.95-5.19-7.31-5.19-7.31l-8.25-3.77s-.35-8.25-1.65-11.55c-.92-2.34-4.39-7.86-6.33-10.86v77.27c1.95.54,5.92,1.65,6.23,1.84.41.25.57,1.31.74,1.56.16.25,9.42,0,9.42,0l-9.66,2.05s-.98,9.25-.82,9.83c.14.47,9.55,10.5,12.81,13.97h236.68c14.5,0,51.46-3.66,75.84-23.9,24.37-20.23,37.91-45.88,43.65-79.98,5.73-34.09,4.62-99.73-14.02-134.78Zm-71.64,155.19c-7.73,14.66-19.71,19.55-31.53,19.55h-19.56v-169.82h18.77c14.82,0,23.65,3.63,31.85,17.51,8.2,13.87,12.61,37.55,12.61,67.81s-4.41,50.28-12.14,64.95Z"/>
  </g>
  <g>
    <path d="m514.22,72.3s-5.67-9.94-6.46-11.13-6.21-7.99-6.21-7.99l5.9,9.03,6.19,11.52.58-1.42Z"/>
    <path d="m637.53,19.59c.78.85,5.96,6.57,13.4,14.01,8.08,8.08,11.69,12.01,11.69,12.01l7.33-16.15s-4.25,25.7-4.04,26.87,5.1,4.14,5.1,4.14c0,0-2.34,18.91-2.73,30.04l-7.58-21.96-3.18-1.7s.85-2.13,1.17-2.34-7.54-5.1-7.54-5.1l4.78-5.63-3.3-6.58.53-3.83s-5.09-8.92-10.09-16.03c-4.05-5.78-5.24-7.36-5.54-7.75,0-.01-.02-.03-.03-.04s-.02-.02-.02-.03l-.04-.04"/>
    <path d="m787.68,159.77l-10.83,9.55,3.84-1.48-1.67,3.74s10.04-6.69,10.63-6.79,23.91,6,23.91,6c0,0-14.07-6.3-14.27-6.89s7.18-7.58,7.77-8.37,7.38-18.7,8.17-20.08,8.86-9.64,10.83-11.02,8.46-2.36,15.65-3.05,8.27-.79,8.76-1.18,8.46-7.28,8.46-7.28v-.98s-9.05,7.38-10.13,7.68-18.21,1.28-18.21,1.28l12.99-11.81-29.03,21.95-3.25-4.72s.39,8.66.1,9.74-9.05,19.58-9.45,20.08-16.24,7.09-16.24,7.09l1.97-3.44Z"/>
    <path d="m780.07,282.45l3.23,2.76s13.78,1.3,24.27,2.73,24.64,5.71,24.64,5.71l-7.51-.68,8.17,11.48-3.58,2.11-4.03-2.11-6.46-11.3s-27.99-3.79-28.49-3.85-7.26-1.8-7.26-1.8l-2.98-3.53v-1.53Z"/>
    <path d="m722.94,371.2s8.94,14.99,9.87,17.53,2.48,7.45,2.76,7.72,11.7,6.34,12.41,7.01,3.09,5.02,3.7,5.9,4.63,3.75,5.96,5.19,10.21,9.82,10.21,9.82c0,0-13.74-11.48-14.95-12.14s-3.31-.94-3.42-1.16-2.98-6.18-3.2-6.34-12.8-6.18-13.02-6.51-6.07-14.4-6.62-15.28-5.84-11.74-5.84-11.74h2.14Z"/>
    <path d="m664.99,269.59l-6.41,7.18-.42,1.72s-4.57,6.94-4.57,7.54,1.72,8.19,1.72,8.78-6.53,9.4-6.53,9.4v3.83l10.15-11.27s-3.14-10.38-3.03-10.8,3.5-6.47,3.56-6.7,10.56-2.91,11.75-3.26-10.03,1.19-10.03,1.19l3.8-7.59Z"/>
    <path d="m575.82,286.68l-2.15.93s-.59,4.4-.68,4.69-3.62.88-3.62.88c0,0-3.42,2.74-4.59,3.91s-10.21,7.43-13.02,11.73-4.47,5.57-4.47,5.57c0,0-15.64,1.27-17.4,1.86s-6.32,2.41-6.32,2.41v-1.04s3.49-3.13,4.07-3.62,17.49-2.44,17.89-2.54,3.71-5.38,4.79-6.25,8.31-7.53,9.38-8.89,8.11-12.51,8.11-12.51l8.02-1.56,1.37.78-1.37,3.67Z"/>
    <path d="m555.6,136.16s2.1,4.55,2.89,6.14,2.1,6.58,2.31,6.9,8.1,8.78,8.39,9,9.25,1.45,9.54,1.45-6.22.58-6.22.58c0,0,4.34,5.49,4.77,6s-.51,2.82-.51,2.82l-7.66-8.6-18.87-1.66,14.82-.72s-6.43-7.3-7.66-8.86-3.4-4.01-3.4-4.23,3.11,2.82,3.33,2.96-.14-1.66-.22-2.24-2.75-4.12-2.75-4.12c0,0,.51-.94.58-1.3s-.58-4.12-.58-4.12h1.23Z"/>
    <path d="m576.38,221.75s-5.53,2.28-12.9,4.59-15.48,3.69-15.48,3.69c0,0,10.04-2.76,16.12-5.25s11.69-4.79,11.69-4.79h1.21l-.64,1.77Z"/>
  </g>
  <g>
    <path d="m677.83,100.4c5.21-14.82,10-28.6,23.05-50.22s35.11-42.49,35.11-42.49h-71.24l-1.89,16.38,10.3-2.9s-5.8,33.95-5.37,34.82,4.93,3.92,4.93,3.92c0,0-3.34,28.73-2.76,33.23s5.07,15.52,5.07,15.52l2.78-8.24Z" fill="#d51e25"/>
    <path d="m698.72,347.45s4.82,25.58,12.46,52.32,12.12,38.1,12.12,38.1h-49.83s8.3-26.97,14.78-50.56,10.46-39.86,10.46-39.86Z" fill="#d51e25"/>
    <polygon points="704.23 264.05 682.23 335.29 660.05 261.95 585.13 283.22 639.76 225.84 583.8 169.06 660.71 189.52 679.49 122.19 700 189.36 778.51 167.86 723.33 226.21 777.73 282.47 704.23 264.05" fill="#d51e25"/>
  </g>
  <g>
    <path d="m1153.34,166.35c-.85,0-1.71-.11-2.56-.35l-282.07-78.15c-2.47-.69-4.53-2.29-5.79-4.52-1.26-2.23-1.58-4.82-.9-7.29l19.11-68.99c1.41-5.1,6.71-8.1,11.82-6.69l282.07,78.15c5.1,1.41,8.1,6.71,6.69,11.82l-19.11,68.99c-1.18,4.25-5.05,7.04-9.26,7.04Zm-1.36-4.69c2.72.75,5.53-.84,6.28-3.55l19.11-68.99c.75-2.71-.84-5.53-3.55-6.28L891.75,4.69c-2.71-.75-5.53.84-6.28,3.55l-19.11,68.99c-.36,1.31-.19,2.69.48,3.88.67,1.19,1.76,2.04,3.08,2.4l282.07,78.15Z" fill="#d51e25"/>
    <rect x="1019.16" y="-69.94" width="4.5" height="307.85" transform="translate(667.76 1045.89) rotate(-74.51)" fill="#d51e25"/>
    <g>
      <path d="m896.94,22.68c.89-3.21.7-4.75-1.09-5.25-2-.55-3.09,1.57-4.82,7.8-1.85,6.66-1.36,8.09.35,8.56,1.43.4,2.7-.15,4.02-4.9l3.95,1.09c-1.32,4.75-3.5,8.56-8.68,7.13-5.93-1.64-5.35-6.6-3.5-13.29,1.85-6.69,3.91-11.24,9.84-9.59,5.66,1.57,4.78,6.34,3.89,9.54l-3.95-1.09Z" fill="#d51e25"/>
      <path d="m911.76,18.32c5.93,1.64,5.35,6.6,3.5,13.29-1.85,6.69-3.91,11.24-9.84,9.59-5.93-1.64-5.35-6.6-3.5-13.29,1.85-6.69,3.91-11.24,9.84-9.59Zm-5.43,19.61c2.33.65,3.34-1.5,4.98-7.42,1.63-5.89,1.88-8.28-.45-8.92s-3.35,1.53-4.98,7.42c-1.64,5.92-1.88,8.28.45,8.92Z" fill="#d51e25"/>
      <path d="m925.19,22.51l.6,16.4.06.02,4.18-15.08,3.62,1-6.1,22.02-4.5-1.25-.56-16.76-.05-.02-4.27,15.42-3.62-1,6.1-22.02,4.56,1.26Z" fill="#d51e25"/>
      <path d="m936.4,25.61l10.95,3.03-1.01,3.64-7-1.94-1.44,5.18,6.59,1.82-1.01,3.64-6.59-1.82-2.65,9.56-3.95-1.09,6.1-22.02Z" fill="#d51e25"/>
      <path d="m943.2,51.21l6.1-22.02,3.95,1.09-6.1,22.02-3.95-1.09Z" fill="#d51e25"/>
      <path d="m956.38,31.15l6.48,1.79c5.49,1.52,5.31,6.02,3.51,12.49-2.16,7.8-4.62,10.91-9.86,9.46l-6.23-1.73,6.1-22.02Zm-1.24,19.84l1.76.49c2.75.76,3.83-1.03,5.49-7.01,1.38-5,1.74-7.65-1.28-8.49l-1.67-.46-4.29,15.48Z" fill="#d51e25"/>
      <path d="m982.9,38.49l-1.01,3.64-7-1.94-1.44,5.18,6.59,1.82-1.01,3.64-6.59-1.82-1.64,5.92,7.27,2.01-1.01,3.64-11.23-3.11,6.1-22.02,10.95,3.03Z" fill="#d51e25"/>
      <path d="m989.72,40.39l.6,16.4.06.02,4.18-15.08,3.62,1-6.1,22.02-4.5-1.25-.56-16.76-.05-.02-4.27,15.42-3.62-1,6.1-22.02,4.56,1.26Z" fill="#d51e25"/>
      <path d="m1012.38,46.66l-1.01,3.64-4.28-1.19-5.09,18.38-3.95-1.09,5.09-18.38-4.28-1.19,1.01-3.64,12.52,3.47Z" fill="#d51e25"/>
      <path d="m1008.16,69.2l6.1-22.02,3.95,1.09-6.1,22.02-3.95-1.09Z" fill="#d51e25"/>
      <path d="m1024.99,50.16l4.89,1.35-.91,23.45-4.12-1.14.38-4.91-5.22-1.44-2.2,4.41-4.12-1.14,11.29-20.58Zm-3.28,13.87l3.84,1.06.85-10.42-.05-.02-4.64,9.37Z" fill="#d51e25"/>
      <path d="m1030.33,75.35l6.1-22.02,3.95,1.09-5.09,18.38,7,1.94-1.01,3.64-10.95-3.03Z" fill="#d51e25"/>
      <path d="m1064.38,73.15l-1.01,3.64-11.95-3.23,1.01-3.64,11.95,3.23Z" fill="#d51e25"/>
      <path d="m1081.67,73.86c.89-3.21.7-4.75-1.09-5.25-2-.55-3.09,1.57-4.82,7.8-1.85,6.66-1.36,8.09.35,8.56,1.43.4,2.7-.15,4.02-4.9l3.95,1.09c-1.32,4.75-3.5,8.56-8.68,7.13-5.93-1.64-5.35-6.6-3.5-13.29,1.85-6.69,3.91-11.24,9.84-9.59,5.66,1.56,4.78,6.34,3.89,9.54l-3.95-1.09Z" fill="#d51e25"/>
      <path d="m1090.08,68.19l3.95,1.09-2.33,8.42,4.61,1.28,2.33-8.42,3.95,1.09-6.1,22.02-3.95-1.09,2.71-9.78-4.61-1.28-2.71,9.78-3.95-1.09,6.1-22.02Z" fill="#d51e25"/>
      <path d="m1099.43,94.49l6.1-22.02,3.95,1.09-6.1,22.02-3.95-1.09Z" fill="#d51e25"/>
      <path d="m1118.75,84.13c.89-3.21.7-4.75-1.09-5.25-2-.55-3.09,1.57-4.82,7.8-1.85,6.66-1.36,8.09.35,8.56,1.43.4,2.7-.15,4.02-4.9l3.95,1.09c-1.32,4.75-3.5,8.56-8.68,7.13-5.93-1.64-5.35-6.6-3.5-13.29,1.85-6.69,3.91-11.24,9.84-9.59,5.66,1.56,4.78,6.34,3.89,9.54l-3.95-1.09Z" fill="#d51e25"/>
      <path d="m1130.51,79.39l4.89,1.35-.91,23.45-4.12-1.14.38-4.91-5.22-1.44-2.2,4.41-4.12-1.14,11.29-20.58Zm-3.28,13.87l3.84,1.06.85-10.42-.05-.02-4.64,9.37Z" fill="#d51e25"/>
      <path d="m1148.85,91.51c.45-1.63.37-3.88-1.23-4.32-1.92-.53-3.31,1.48-4.83,6.96-1.47,5.3-1.95,8.76.33,9.39.93.26,2.76-.46,3.42-2.84l.62-2.25-2.61-.72.91-3.27,6.4,1.77-3.29,11.87-2.91-.81.56-2.04-.05-.02c-1.41,1.47-2.96,1.84-4.8,1.33-4.86-1.35-4.69-5.68-2.58-13.3,2.05-7.4,4.64-10.77,9.69-9.37,4.34,1.2,5.4,4.19,4.16,8.66l-3.79-1.05Z" fill="#d51e25"/>
      <path d="m1163.6,88.09c5.93,1.64,5.35,6.6,3.5,13.29-1.85,6.69-3.91,11.24-9.84,9.59-5.93-1.64-5.35-6.6-3.5-13.29,1.85-6.69,3.91-11.24,9.84-9.59Zm-5.43,19.61c2.33.65,3.34-1.5,4.98-7.42,1.63-5.89,1.88-8.28-.45-8.92s-3.35,1.53-4.98,7.42c-1.64,5.92-1.88,8.28.45,8.92Z" fill="#d51e25"/>
    </g>
    <g>
      <path d="m931.61,67.05l-5.05,18.24c-.72,2.6-.65,4.71,1.73,5.37,2.38.66,3.52-1.11,4.24-3.71l5.05-18.24,5.12,1.42-5.05,18.24c-1.85,6.67-6.28,7.33-10.43,6.18-4.16-1.15-7.7-3.67-5.76-10.67l5.05-18.24,5.12,1.42Z" fill="#d51e25"/>
      <path d="m951.83,72.65l1.22,19.62.07.02,4.96-17.91,4.69,1.3-7.24,26.15-5.83-1.61-1.18-20.04-.07-.02-5.07,18.31-4.69-1.3,7.25-26.15,5.9,1.63Z" fill="#d51e25"/>
      <path d="m966.32,76.67l9.45,2.62c4.19,1.16,6.12,4.14,4.88,8.61-.96,3.48-2.96,5.45-6.01,5.27l-.02.07c3.35,1.44,3.33,3.57,1.87,9.12-.73,2.76-.98,4.22-.16,5l-.06.22-5.54-1.54c-.29-.87-.13-1.89.12-2.92l1.25-5.06c.5-2.07-.05-3.56-2.11-4.13l-2.74-.76-3.06,11.06-5.12-1.42,7.25-26.15Zm1.95,12.84l2.13.59c2.45.68,4.14-.04,4.92-2.86.67-2.42-.24-3.97-2.55-4.61l-2.42-.67-2.09,7.54Z" fill="#d51e25"/>
      <path d="m1000.24,86.07l-1.2,4.32-9.06-2.51-1.71,6.15,8.53,2.36-1.2,4.32-8.53-2.36-1.95,7.03,9.41,2.61-1.2,4.32-14.53-4.03,7.25-26.15,14.17,3.93Z" fill="#d51e25"/>
      <path d="m995.92,113.02l7.25-26.15,5.12,1.42-6.05,21.83,9.06,2.51-1.2,4.32-14.17-3.93Z" fill="#d51e25"/>
      <path d="m1033.79,95.36l-1.2,4.32-9.06-2.51-1.71,6.15,8.53,2.36-1.2,4.32-8.53-2.36-1.95,7.03,9.41,2.61-1.2,4.32-14.53-4.03,7.25-26.15,14.17,3.93Z" fill="#d51e25"/>
      <path d="m1041.65,97.54l6.32,1.75-.53,28.01-5.33-1.48.36-5.85-6.75-1.87-2.71,5.2-5.33-1.48,13.96-24.29Zm-3.84,16.48l4.97,1.38.81-12.43-.07-.02-5.71,11.08Z" fill="#d51e25"/>
      <path d="m1055.61,120.77l-.21.77c-.68,2.45-.44,4.22,2.26,4.96,1.56.43,3.34-.18,3.95-2.38.66-2.38-.27-3.58-3.31-5.73-4.1-2.87-5.66-5.39-4.45-9.75,1.41-5.09,5.15-6.85,9.98-5.52,4.55,1.26,7.29,4.19,5.9,9.21l-.2.73-4.9-1.36c.68-2.45.26-4.11-1.7-4.65-2.31-.64-3.33.69-3.75,2.23-.45,1.61-.26,2.73,1.64,4.28l3.46,2.85c3.36,2.78,3.8,5.07,2.91,8.26-1.53,5.53-5.49,7.11-11.03,5.58-5.79-1.6-7.29-5.02-5.95-9.85l.29-1.06,5.12,1.42Z" fill="#d51e25"/>
      <path d="m1089.06,110.67l-1.2,4.32-9.06-2.51-1.71,6.15,8.53,2.36-1.2,4.32-8.53-2.36-1.95,7.03,9.41,2.61-1.2,4.32-14.53-4.03,7.25-26.15,14.17,3.93Z" fill="#d51e25"/>
      <path d="m1092.24,111.55l8.38,2.32c7.1,1.97,6.99,7.34,4.86,15.03-2.57,9.27-5.64,12.91-12.43,11.03l-8.06-2.23,7.25-26.15Zm-1.05,23.68l2.27.63c3.55.98,4.9-1.13,6.87-8.23,1.64-5.93,2.02-9.1-1.88-10.18l-2.17-.6-5.09,18.38Z" fill="#d51e25"/>
    </g>
  </g>
  <g>
    <path d="m1114.1,418.04c0-2.35-.38-3.36-1.54-3.36-1.31,0-1.61,1.65-1.61,6.2,0,4.87.54,5.75,1.65,5.75.93,0,1.61-.61,1.61-4.08h2.58c0,3.47-.68,6.47-4.06,6.47-3.87,0-4.35-3.47-4.35-8.37s.48-8.37,4.35-8.37,3.96,3.41,3.96,5.75h-2.58Z" fill="#d51e25"/>
    <path d="m1118.25,412.61h2.58v6.16h3.01v-6.16h2.58v16.1h-2.58v-7.15h-3.01v7.15h-2.58v-16.1Z" fill="#d51e25"/>
    <path d="m1128.34,428.71v-16.1h2.58v16.1h-2.58Z" fill="#d51e25"/>
    <path d="m1138.29,418.04c0-2.35-.38-3.36-1.54-3.36-1.31,0-1.61,1.65-1.61,6.2,0,4.87.54,5.75,1.65,5.75.93,0,1.61-.61,1.61-4.08h2.58c0,3.47-.68,6.47-4.06,6.47-3.87,0-4.35-3.47-4.35-8.37s.48-8.37,4.35-8.37,3.96,3.41,3.96,5.75h-2.58Z" fill="#d51e25"/>
    <path d="m1144.61,412.61h3.19l3.38,16.1h-2.68l-.59-3.41h-3.4l-.59,3.41h-2.68l3.38-16.1Zm.34,10.04h2.51l-1.23-7.24h-.04l-1.24,7.24Z" fill="#d51e25"/>
    <path d="m1157.75,417.39c0-1.2-.43-2.71-1.47-2.71-1.25,0-1.75,1.62-1.75,5.64s.29,6.31,1.77,6.31c.61,0,1.59-.83,1.59-2.57v-1.65h-1.7v-2.39h4.17v8.68h-1.9v-1.49h-.04c-.61,1.26-1.49,1.8-2.68,1.8-3.17,0-3.79-2.98-3.79-8.55s1-8.19,4.3-8.19c2.83,0,3.97,1.83,3.97,5.1h-2.47Z" fill="#d51e25"/>
    <path d="m1166.11,412.29c3.87,0,4.35,3.47,4.35,8.37s-.48,8.37-4.35,8.37-4.35-3.47-4.35-8.37.48-8.37,4.35-8.37Zm0,14.34c1.52,0,1.77-1.65,1.77-5.98s-.25-5.98-1.77-5.98-1.77,1.67-1.77,5.98.25,5.98,1.77,5.98Z" fill="#d51e25"/>
  </g>
  <g>
    <circle cx="8.78" cy="43.58" r="8.78"/>
    <circle cx="8.78" cy="81.08" r="8.78"/>
    <circle cx="8.78" cy="118.58" r="8.78"/>
    <circle cx="8.78" cy="329.33" r="8.78"/>
    <circle cx="8.78" cy="366.83" r="8.78"/>
    <circle cx="8.78" cy="404.34" r="8.78"/>
    <circle cx="8.78" cy="207.63" r="8.78"/>
    <circle cx="8.78" cy="245.13" r="8.78"/>
  </g>
</svg>