<?xml version="1.0" encoding="UTF-8"?>
<svg xmlns="http://www.w3.org/2000/svg" version="1.1" viewBox="0 0 16 16">
  <!-- Generator: Adobe Illustrator 30.2.1, SVG Export Plug-In . SVG Version: 2.1.1 Build 1)  -->
  <g id="Layer_5">
    <rect x="-4029.89" y="-248" width="2048" height="2048" fill="#111827"/>
  </g>
  <g id="Bars">
    <g id="Icon">
      <text transform="translate(4.01 11.9)" display="none" fill="#1a2333" font-family="AvenirNext-Medium, &apos;Avenir Next&apos;" font-size="15.62" font-weight="500" letter-spacing=".04em" opacity=".12"><tspan x="0" y="0">x</tspan></text>
      <rect id="Icon_Bar" x="6.94" y="1.2" width="2.12" height="13.59" fill="#a88945"/>
    </g>
    <g id="Icon1" data-name="Icon">
      <text transform="translate(-568.91 51.84)" fill="#1a2333" font-family="AvenirNext-Medium, &apos;Avenir Next&apos;" font-size="175.78" font-weight="500" letter-spacing=".04em" opacity=".12"><tspan x="0" y="0">x</tspan></text>
      <rect id="x" x="-536.3" y="-116.55" width="24.61" height="246.09" transform="translate(-158.07 -368.62) rotate(-45)" fill="#1a2333"/>
      <rect id="x1" data-name="x" x="-536.3" y="-116.55" width="24.61" height="246.09" transform="translate(-148.88 372.43) rotate(45)" fill="#1a2333"/>
      <rect id="Icon_Bar1" data-name="Icon_Bar" x="-535.95" y="-68.46" width="23.91" height="152.93" fill="#a88945"/>
    </g>
    <g id="Icon2" data-name="Icon">
      <text transform="translate(-1063.98 15.79)" fill="#1a2333" font-family="AvenirNext-Medium, &apos;Avenir Next&apos;" font-size="31.25" font-weight="500" letter-spacing=".04em" opacity=".12"><tspan x="0" y="0">x</tspan></text>
      <rect id="x2" data-name="x" x="-1058.19" y="-14.14" width="4.38" height="43.75" transform="translate(-314.76 -744.44) rotate(-45)" fill="#1a2333"/>
      <rect id="x3" data-name="x" x="-1058.19" y="-14.14" width="4.38" height="43.75" transform="translate(-303.83 748.97) rotate(45)" fill="#1a2333"/>
      <rect id="Icon_Bar2" data-name="Icon_Bar" x="-1058.12" y="-5.59" width="4.25" height="27.19" fill="#a88945"/>
    </g>
    <g id="Icon3" data-name="Icon">
      <text transform="translate(-1715.75 822.49)" fill="#1a2333" font-family="AvenirNext-Medium, &apos;Avenir Next&apos;" font-size="500" font-weight="500" letter-spacing=".04em" opacity=".12"><tspan x="0" y="0">x</tspan></text>
      <rect id="x4" data-name="x" x="-1623" y="343.5" width="70" height="700" transform="translate(-955.49 -919.77) rotate(-45)" fill="#1a2333"/>
      <rect id="x5" data-name="x" x="-1623" y="343.5" width="70" height="700" transform="translate(25.26 1326.01) rotate(45)" fill="#1a2333"/>
      <rect id="Icon_Bar3" data-name="Icon_Bar" x="-1622" y="480.28" width="68" height="435" fill="#a88945"/>
    </g>
    <rect id="Dark_Bar" x="-2850.13" y="541" width="63" height="354" fill="#a88945"/>
    <rect id="Light_Bar" x="-4918.13" y="541" width="63" height="354" fill="#a88945"/>
  </g>
  <g id="XPA_RK">
    <g id="Light_Text">
      <path d="M-3776.06,706l-110-165h76l73,121,72-121h72.5l-108,166.5,127,187.5h-79.5l-86.5-139-83,139h-76l122.5-189Z" fill="#f8f9fb"/>
      <path d="M-3521.56,541h115.5c20.33,0,38.66,1.84,55,5.5,16.33,3.67,30.33,9.67,42,18,11.66,8.34,20.66,19,27,32,6.33,13,9.5,28.67,9.5,47,0,19.67-3.67,36.17-11,49.5-7.34,13.34-17.25,24.09-29.75,32.25-12.5,8.17-27.09,14.09-43.75,17.75-16.67,3.67-34.34,5.5-53,5.5h-48.5v146.5h-63v-354ZM-3414.56,695.5c10.33,0,20.16-.75,29.5-2.25,9.33-1.5,17.66-4.16,25-8,7.33-3.83,13.16-9.08,17.5-15.75,4.33-6.66,6.5-15.33,6.5-26s-2.17-18.75-6.5-25.25c-4.34-6.5-10.09-11.58-17.25-15.25-7.17-3.66-15.34-6.08-24.5-7.25-9.17-1.16-18.59-1.75-28.25-1.75h-46v101.5h44Z" fill="#f8f9fb"/>
      <path d="M-3118.57,541h54.5l152.5,354h-72l-33-81h-153.5l-32,81h-70.5l154-354ZM-3038.57,760l-54.5-144-55.5,144h110Z" fill="#f8f9fb"/>
      <path d="M-2691.57,541h123c16.66,0,32.83,1.75,48.5,5.25,15.66,3.5,29.58,9.25,41.75,17.25,12.16,8,21.91,18.5,29.25,31.5,7.33,13,11,28.84,11,47.5,0,25.67-7.25,46.59-21.75,62.75-14.5,16.17-34.25,27.09-59.25,32.75l94.5,157h-76l-82-150h-46v150h-63v-354ZM-2577.07,693.5c9,0,18-.66,27-2,9-1.33,17.08-3.83,24.25-7.5,7.16-3.66,13.08-8.91,17.75-15.75,4.66-6.83,7-15.58,7-26.25,0-9.66-2.17-17.58-6.5-23.75-4.34-6.16-9.84-11.08-16.5-14.75-6.67-3.66-14.25-6.16-22.75-7.5-8.5-1.33-16.75-2-24.75-2h-57v99.5h51.5Z" fill="#f8f9fb"/>
      <path d="M-2365.07,541h63v153h1.5l148-153h85l-165.5,163.5,176.5,190.5h-88.5l-155.5-177.5h-1.5v177.5h-63v-354Z" fill="#f8f9fb"/>
    </g>
    <g id="Dark_Text">
      <path d="M-5844.06,706l-110-165h76l73,121,72-121h72.5l-108,166.5,127,187.5h-79.5l-86.5-139-83,139h-76l122.5-189Z" fill="#111827"/>
      <path d="M-5589.56,541h115.5c20.33,0,38.66,1.84,55,5.5,16.33,3.67,30.33,9.67,42,18,11.66,8.34,20.66,19,27,32,6.33,13,9.5,28.67,9.5,47,0,19.67-3.67,36.17-11,49.5-7.34,13.34-17.25,24.09-29.75,32.25-12.5,8.17-27.09,14.09-43.75,17.75-16.67,3.67-34.34,5.5-53,5.5h-48.5v146.5h-63v-354ZM-5482.56,695.5c10.33,0,20.16-.75,29.5-2.25,9.33-1.5,17.66-4.16,25-8,7.33-3.83,13.16-9.08,17.5-15.75,4.33-6.66,6.5-15.33,6.5-26s-2.17-18.75-6.5-25.25c-4.34-6.5-10.09-11.58-17.25-15.25-7.17-3.66-15.34-6.08-24.5-7.25-9.17-1.16-18.59-1.75-28.25-1.75h-46v101.5h44Z" fill="#111827"/>
      <path d="M-5186.57,541h54.5l152.5,354h-72l-33-81h-153.5l-32,81h-70.5l154-354ZM-5106.57,760l-54.5-144-55.5,144h110Z" fill="#111827"/>
      <path d="M-4759.57,541h123c16.66,0,32.83,1.75,48.5,5.25,15.66,3.5,29.58,9.25,41.75,17.25,12.16,8,21.91,18.5,29.25,31.5,7.33,13,11,28.84,11,47.5,0,25.67-7.25,46.59-21.75,62.75-14.5,16.17-34.25,27.09-59.25,32.75l94.5,157h-76l-82-150h-46v150h-63v-354ZM-4645.07,693.5c9,0,18-.66,27-2,9-1.33,17.08-3.83,24.25-7.5,7.16-3.66,13.08-8.91,17.75-15.75,4.66-6.83,7-15.58,7-26.25,0-9.66-2.17-17.58-6.5-23.75-4.34-6.16-9.84-11.08-16.5-14.75-6.67-3.66-14.25-6.16-22.75-7.5-8.5-1.33-16.75-2-24.75-2h-57v99.5h51.5Z" fill="#111827"/>
      <path d="M-4433.07,541h63v153h1.5l148-153h85l-165.5,163.5,176.5,190.5h-88.5l-155.5-177.5h-1.5v177.5h-63v-354Z" fill="#111827"/>
    </g>
    <text/>
  </g>
</svg>