<?xml version="1.0" encoding="UTF-8"?>
<svg id="Layer_1" data-name="Layer 1" xmlns="http://www.w3.org/2000/svg" viewBox="0 0 1200 1200">
  <g>
    <path d="M573.92,355.66s7.95,17.66,13.37,41.08l-31.07,19.1-78.4-49.37-62.14-9.01,59.25-39.28,91.77,58.38,7.23-20.9Z" fill="#162e50"/>
    <polygon points="526.26 432.65 507.44 453.68 478.53 439.63 462.64 401.07 478.17 402.87 496.6 423.05 526.26 432.65" fill="#162e50"/>
    <path d="M380.39,421.64s-5.81,26.25-5.47,51.14c0,0,20.85,30,29.05,39.21s54.01,59.66,54.01,59.66l-4.1,39.89-59.82-76.37-37.6,48.41-1.71-132.62s13.67-18.41,25.64-29.32Z" fill="#162e50"/>
    <path d="M878.84,372.04c-2.14-4.24-18.66-34.51-23.65-43.66l34.93-48.46,12.12-70.87-47.65-45.43-108.23,50.44-48.9-21.26-97.46,6.67-97.46-6.67-48.89,21.26-108.24-50.44-47.64,45.43,12.12,70.87,34.93,48.46c-4.99,9.15-21.52,39.42-23.65,43.66-2.51,5-69.37,141.73-69.37,141.73l96.96,164.23,56.13,31.72-119.17-197.02,51.89-113.53,137.25-164.29,29.13-13.02,96.01,7.68,96.02-7.68,29.12,13.02,137.25,164.29,51.9,113.53-119.18,197.02,56.14-31.72,96.95-164.23s-66.86-136.73-69.36-141.73ZM366.52,322.18l-25.7-43.51-8.36-60.45,19.22-18.75,81.49,40.01-66.65,82.7ZM766.83,239.48l81.5-40.01,19.22,18.75-8.36,60.45-25.71,43.51-66.65-82.7Z" fill="#162e50"/>
    <path d="M626.09,355.66s-7.95,17.66-13.37,41.08l31.07,19.1,78.4-49.37,62.14-9.01-59.25-39.28-91.77,58.38-7.23-20.9Z" fill="#162e50"/>
    <polygon points="673.74 432.65 692.57 453.68 721.47 439.63 737.37 401.07 721.83 402.87 703.41 423.05 673.74 432.65" fill="#162e50"/>
    <path d="M819.61,421.64s5.81,26.25,5.47,51.14c0,0-20.85,30-29.05,39.21s-54.01,59.66-54.01,59.66l4.1,39.89,59.82-76.37,37.6,48.41,1.71-132.62s-13.67-18.41-25.64-29.32Z" fill="#162e50"/>
    <path d="M780.01,651.14s-14.64,75.76-20.43,81.54c-5.79,5.77-159.58,124.69-159.58,124.69,0,0-153.78-118.92-159.57-124.69-5.79-5.78-20.44-81.54-20.44-81.54l81.07,91.39s26.57,14.95,29.97,18.35c3.41,3.39,68.97,75.76,68.97,75.76,0,0,65.56-72.37,68.97-75.76,3.41-3.4,29.98-18.35,29.98-18.35l81.06-91.39Z" fill="#162e50"/>
    <polygon points="661.24 687.85 600 740.53 538.76 687.85 600 659.47 661.24 687.85" fill="#162e50"/>
    <polygon points="582.14 599.32 582.14 588.72 560.58 576.46 560.58 580.72 582.14 599.32" fill="#162e50"/>
    <path d="M636.15,763.53l-33.54,36.56c-1.41,1.53-3.82,1.53-5.23,0l-33.54-36.56h72.3Z" fill="#162e50"/>
    <path d="M695.75,606.92c-1.29,7.69-10.58,67.13-10.58,67.13l-65.29-34.85v-9.99l41.03-30.74s1.03-11.79,1.03-22.55-1.03-29.46-1.03-29.46l-25.55-15.37h-70.72l-25.55,15.37s-1.03,18.7-1.03,29.46,1.03,22.55,1.03,22.55l41.03,30.74v9.99l-65.29,34.85s-9.29-59.44-10.58-67.13c-1.29-7.68-.78-14.6,0-20.49.77-5.89,18.32-93.26,19.61-95.56,1.29-2.31,11.36-14.35,11.87-15.63.52-1.28,11.36-22.8,13.42-27.41,2.07-4.61,3.87-4.61,6.46-6.66,2.58-2.05,44.39-24.34,44.39-24.34,0,0,41.81,22.29,44.39,24.34,2.59,2.05,4.39,2.05,6.46,6.66,2.06,4.61,12.9,26.13,13.42,27.41.51,1.28,10.58,13.32,11.87,15.63,1.29,2.3,18.84,89.67,19.61,95.56.78,5.89,1.29,12.81,0,20.49Z" fill="#162e50"/>
    <polygon points="617.86 599.32 617.86 588.72 639.42 576.46 639.42 580.72 617.86 599.32" fill="#162e50"/>
  </g>
  <g>
    <path d="M531.28,831.97c-40.98-31.79-70.26-54.65-87.65-68.45h-52.35v242.36h111.75l28.25-27.9v-71.77l-25.32-24.97,25.32-23.92v-25.35ZM430.4,800.76h51.5l10.17,9.84v34.61l-20.34,19.19h-41.33s-.25-63.89,0-63.64ZM492.33,958.11l-10.66,10.82h-51.11v-68.83h42.8l18.97,18.19v39.82Z" fill="#162e50"/>
    <path d="M627.58,863.84h22.73l-9.28,36.1h-47.44v104.73l-39.9,31.7v-187.03c10.34,8,21.29,16.48,32.85,25.42l2.42,1.87h22.08l2.42-1.87c4.81-3.72,9.52-7.36,14.12-10.92Z" fill="#162e50"/>
    <path d="M773.61,892.15l32.78-22.27v-78.8l-29.77-27.55h-20.23c-16.37,12.98-43.27,33.99-80.54,62.92v179.7h39.4v-75.8l26.17-17.45,31.29,93.25h40.3l-39.4-114ZM766.69,853.64l-51.44,32.08v-85.32h41.81l9.63,9.33v43.91Z" fill="#162e50"/>
  </g>
</svg>