<svg xmlns="http://www.w3.org/2000/svg" viewBox="0 0 494 109" width="494" height="109">
  <defs>
    <linearGradient id="silver" x1="0" y1="0" x2="0" y2="1">
      <stop offset="0%" stop-color="#E8E8EC"/>
      <stop offset="40%" stop-color="#D0D0D6"/>
      <stop offset="100%" stop-color="#B8B8C0"/>
    </linearGradient>
    <linearGradient id="cyan" x1="0" y1="0" x2="1" y2="0">
      <stop offset="0%" stop-color="#35CCEE"/>
      <stop offset="30%" stop-color="#5CDCF6"/>
      <stop offset="60%" stop-color="#90E8FA"/>
      <stop offset="85%" stop-color="#C8F2FE"/>
      <stop offset="100%" stop-color="#E8F9FF"/>
    </linearGradient>
    <radialGradient id="starRed" cx="50%" cy="50%" r="55%">
      <stop offset="0%" stop-color="#E82828"/>
      <stop offset="60%" stop-color="#D41818"/>
      <stop offset="100%" stop-color="#BC0E0E"/>
    </radialGradient>
  </defs>
  <g transform="translate(0,109) scale(0.1,-0.1)" fill="url(#starRed)" stroke="none">
    <path d="M1777 1000 c-3 -8 -12 -44 -21 -80 -26 -105 -45 -173 -51 -178 -2 -3
-58 9 -123 27 -65 17 -125 31 -133 31 -7 0 31 -45 85 -99 69 -69 96 -103 90
-112 -4 -8 -43 -56 -87 -107 -44 -51 -78 -94 -76 -96 2 -2 58 16 123 40 66 24
122 44 126 44 3 0 20 -57 37 -127 16 -71 34 -126 39 -123 5 2 22 59 38 127 17
71 35 123 41 123 7 0 61 -18 120 -40 59 -23 112 -39 117 -38 5 2 -30 48 -77
102 -47 55 -84 103 -83 108 2 5 46 51 97 103 52 52 92 97 90 100 -3 2 -63 -12
-134 -31 -96 -26 -130 -32 -136 -23 -4 7 -19 60 -34 118 -33 130 -41 152 -48
131z"/>
  </g>
  <g transform="translate(0,109) scale(0.1,-0.1)" fill="url(#silver)" stroke="none">
    <path d="M370 818 c-77 -22 -118 -77 -107 -145 7 -41 36 -76 76 -93 15 -6 74
-19 131 -28 76 -13 106 -22 114 -35 33 -55 -156 -63 -274 -13 -12 5 -22 -6
-38 -39 l-22 -45 28 -14 c73 -36 233 -50 320 -26 95 25 143 108 107 183 -23
48 -76 73 -197 91 -54 8 -102 17 -108 21 -16 10 -12 42 6 49 29 11 160 6 208
-8 l47 -14 15 36 c8 21 15 41 17 47 7 32 -239 57 -323 33z"/>
    <path d="M767 813 c-4 -3 -7 -100 -7 -214 l0 -208 54 -6 c30 -4 59 -4 65 0 7
4 11 54 11 136 l0 130 79 -99 c99 -124 104 -125 195 -8 101 129 96 130 96 -23
l0 -131 60 0 60 0 0 215 0 215 -69 0 -68 0 -83 -110 c-45 -60 -85 -110 -89
-110 -7 0 -104 122 -149 187 -22 31 -26 33 -86 33 -34 0 -66 -3 -69 -7z"/>
  </g>
  <g transform="translate(0,109) scale(0.1,-0.1)" fill="url(#cyan)" stroke="none">
    <path d="M2225 818 c-13 -36 -85 -440 -80 -448 4 -6 101 -10 240 -10 l234 0
11 41 c6 22 14 47 17 55 4 12 -22 14 -172 14 l-177 0 6 23 c3 12 6 28 6 35 0
9 35 12 143 12 l143 0 17 48 c9 26 17 50 17 53 0 3 -65 3 -145 1 -159 -5 -155
-6 -139 56 7 23 8 23 168 21 l161 -1 22 43 c12 24 22 50 22 57 1 9 -54 12
-244 12 -187 0 -247 -3 -250 -12z"/>
    <path d="M2770 789 c-6 -24 -13 -50 -15 -56 -3 -10 28 -13 133 -13 228 -1 257
-13 249 -108 -8 -104 -63 -142 -204 -142 -51 0 -93 1 -93 3 0 2 9 43 20 93 11
49 20 92 20 97 0 4 -31 7 -69 7 -63 0 -69 -2 -74 -22 -4 -13 -18 -79 -32 -147
-21 -101 -24 -126 -13 -133 7 -5 94 -7 193 -6 174 4 182 5 243 33 75 34 122
85 145 156 21 64 21 109 2 156 -20 48 -41 70 -90 96 -35 19 -61 22 -222 25
l-182 4 -11 -43z"/>
    <path d="M3493 801 c-102 -35 -164 -107 -183 -213 -22 -116 25 -195 129 -217
57 -12 283 -14 346 -3 l40 7 27 115 c38 167 50 150 -101 150 l-129 0 -10 -27
c-5 -16 -13 -36 -17 -45 -6 -16 0 -18 64 -18 l71 0 -6 -27 c-3 -16 -7 -34 -10
-40 -2 -9 -34 -13 -112 -13 -95 0 -111 2 -130 20 -48 45 -18 157 53 197 37 21
53 23 191 23 l151 0 19 47 c11 27 21 51 22 55 2 5 -79 8 -180 8 -149 -1 -193
-4 -235 -19z"/>
    <path d="M3956 738 c-3 -46 -19 -146 -35 -223 -16 -77 -27 -142 -26 -144 8 -8
290 -13 387 -6 l106 7 5 31 c3 18 8 40 12 49 6 16 -7 18 -172 20 l-179 3 8 33
9 32 143 0 144 0 16 47 c9 26 16 48 16 50 0 2 -68 3 -151 3 l-151 0 6 23 c3
12 6 28 6 34 0 9 44 13 171 15 l171 3 19 50 c10 28 19 51 19 53 0 1 -116 2
-259 2 l-258 0 -7 -82z"/>
  </g>
</svg>