<svg xmlns="http://www.w3.org/2000/svg" viewBox="0 0 451 112" width="451" height="112">
  <defs>
    <linearGradient id="cyan" x1="0" y1="0" x2="1" y2="0">
      <stop offset="0%" stop-color="#35CCEE"/>
      <stop offset="30%" stop-color="#5CDCF6"/>
      <stop offset="60%" stop-color="#90E8FA"/>
      <stop offset="85%" stop-color="#C8F2FE"/>
      <stop offset="100%" stop-color="#E8F9FF"/>
    </linearGradient>
    <linearGradient id="gold" x1="0" y1="0" x2="0" y2="1">
      <stop offset="0%" stop-color="#E8B840"/>
      <stop offset="50%" stop-color="#D4A030"/>
      <stop offset="100%" stop-color="#C08820"/>
    </linearGradient>
  </defs>
  <g transform="translate(0,112) scale(0.1,-0.1)" fill="url(#gold)" stroke="none">
    <path d="M3540 856 c-4 -12 -15 -58 -25 -103 l-18 -82 -106 -3 -106 -3 -12
-36 c-6 -20 -15 -53 -18 -73 l-7 -36 109 0 110 0 -18 -82 c-30 -134 -32 -128
59 -128 l78 0 24 106 23 106 76 -2 c146 -5 136 -9 155 65 9 35 16 67 16 70 0
3 -47 5 -105 5 -80 0 -105 3 -105 13 0 7 9 53 19 102 11 49 18 91 15 94 -2 2
-38 5 -80 6 -68 1 -77 -1 -84 -19z"/>
  </g>
  <g transform="translate(0,112) scale(0.1,-0.1)" fill="url(#cyan)" stroke="none">
    <path d="M476 862 c-6 -9 -76 -286 -105 -417 -12 -49 -24 -100 -27 -112 l-6
-23 310 0 309 0 17 58 c9 32 16 61 16 65 0 4 -97 7 -215 7 l-216 0 7 38 c4 20
9 40 11 45 2 4 84 7 182 7 l177 0 20 52 c10 29 21 56 22 60 2 4 -81 8 -183 8
l-187 0 6 31 c3 17 6 38 6 45 0 11 38 14 208 14 l208 0 32 65 32 65 -310 0
c-170 0 -311 -4 -314 -8z"/>
    <path d="M1157 817 c-9 -29 -17 -59 -17 -65 0 -7 67 -12 208 -14 176 -3 212
-6 234 -20 36 -24 43 -65 22 -138 -19 -67 -52 -107 -106 -127 -36 -13 -258
-18 -258 -5 0 12 47 196 55 215 6 15 -1 17 -83 17 -71 0 -91 -3 -96 -15 -5
-15 -86 -343 -86 -352 0 -3 109 -3 243 -1 264 5 298 11 384 70 142 97 188 322
85 421 -58 56 -87 61 -337 65 l-231 4 -17 -55z"/>
    <path d="M2115 855 c-85 -19 -113 -31 -172 -75 -71 -54 -116 -145 -121 -245
-5 -89 12 -134 68 -174 59 -43 115 -51 355 -51 l214 0 11 38 c19 69 70 281 70
291 0 7 -55 11 -164 11 l-163 0 -20 -55 -21 -55 90 0 c74 0 89 -3 85 -14 -3
-8 -9 -30 -12 -49 l-7 -34 -75 -6 c-86 -6 -164 -1 -207 16 -80 30 -60 181 33
242 52 35 131 46 304 43 l147 -3 30 64 c17 34 30 65 30 67 0 11 -420 1 -475
-11z"/>
    <path d="M2650 833 c0 -21 -11 -87 -24 -148 -27 -127 -74 -332 -82 -357 -5
-17 14 -18 305 -18 l310 0 15 48 c8 26 17 55 21 65 7 16 -8 17 -219 17 -124 0
-226 3 -226 8 0 4 5 24 11 45 l10 37 182 0 182 0 22 60 22 60 -191 0 -190 0 6
31 c3 17 6 38 6 45 0 11 40 14 218 14 l217 0 23 59 c12 32 22 61 22 65 0 3
-144 6 -320 6 l-320 0 0 -37z"/>
  </g>
</svg>