<svg xmlns="http://www.w3.org/2000/svg" viewBox="0 0 210 145" width="210" height="145">
  <defs>
    <radialGradient id="starRed" cx="50%" cy="50%" r="55%">
      <stop offset="0%" stop-color="#E82828"/>
      <stop offset="60%" stop-color="#D41818"/>
      <stop offset="100%" stop-color="#BC0E0E"/>
    </radialGradient>
  </defs>
  <g transform="translate(0,145) scale(0.1,-0.1)" fill="url(#starRed)" stroke="none">
    <path d="M901 1257 c-34 -135 -84 -322 -87 -325 -3 -4 -314 65 -378 83 -27 8
-51 13 -54 10 -2 -2 11 -17 29 -32 19 -15 66 -57 104 -93 39 -36 96 -89 128
-118 l59 -52 -47 -53 c-26 -28 -92 -100 -147 -160 -55 -59 -96 -107 -92 -107
5 0 54 16 109 36 55 20 144 51 198 69 l98 33 8 -21 c5 -12 28 -102 52 -199 24
-98 47 -178 51 -178 3 0 9 15 13 32 6 29 78 304 91 351 4 13 11 16 22 12 92
-38 375 -136 383 -133 4 2 -58 72 -138 157 -79 84 -142 157 -141 160 3 8 236
221 287 264 18 15 32 29 30 31 -2 2 -86 -16 -186 -39 -101 -24 -197 -45 -214
-47 l-31 -3 -53 185 c-30 102 -54 193 -55 202 -1 46 -18 17 -39 -65z"/>
  </g>
</svg>