<svg xmlns="http://www.w3.org/2000/svg" viewBox="0 0 582 134" width="582" height="134">
  <defs>
    <linearGradient id="silver" x1="0" y1="0" x2="0" y2="1">
      <stop offset="0%" stop-color="#E8E8EC"/>
      <stop offset="40%" stop-color="#D0D0D6"/>
      <stop offset="100%" stop-color="#B8B8C0"/>
    </linearGradient>
    <linearGradient id="cyan" x1="0" y1="0" x2="1" y2="0">
      <stop offset="0%" stop-color="#35CCEE"/>
      <stop offset="30%" stop-color="#5CDCF6"/>
      <stop offset="60%" stop-color="#90E8FA"/>
      <stop offset="85%" stop-color="#C8F2FE"/>
      <stop offset="100%" stop-color="#E8F9FF"/>
    </linearGradient>
    <radialGradient id="starRed" cx="50%" cy="50%" r="55%">
      <stop offset="0%" stop-color="#E82828"/>
      <stop offset="60%" stop-color="#D41818"/>
      <stop offset="100%" stop-color="#BC0E0E"/>
    </radialGradient>
  </defs>
  <g transform="translate(0,134) scale(0.1,-0.1)" fill="url(#starRed)" stroke="none">
    <path d="M2166 1083 c-2 -10 -7 -34 -11 -53 -4 -19 -18 -76 -32 -127 l-26 -92
-31 6 c-17 4 -80 19 -141 34 -60 14 -112 25 -114 23 -2 -2 45 -50 105 -107
l108 -104 -97 -110 c-53 -61 -97 -113 -97 -116 0 -3 59 14 132 39 73 24 135
44 138 44 3 0 20 -63 39 -141 19 -77 37 -136 41 -132 4 4 23 70 41 146 27 110
37 136 49 131 89 -36 242 -85 247 -80 4 4 3 10 -2 14 -6 4 -39 41 -74 82 -36
41 -74 85 -85 98 l-20 23 112 105 c62 58 112 110 112 115 0 6 -4 8 -9 4 -15
-9 -285 -74 -291 -70 -3 2 -22 67 -41 144 -18 77 -37 141 -41 141 -4 0 -9 -8
-12 -17z"/>
  </g>
  <g transform="translate(0,134) scale(0.1,-0.1)" fill="url(#silver)" stroke="none">
    <path d="M670 895 c-90 -26 -123 -56 -135 -125 -4 -26 0 -44 15 -68 36 -59 68
-70 273 -98 46 -6 77 -24 77 -45 0 -6 -17 -17 -37 -26 -49 -20 -168 -13 -241
15 l-54 21 -13 -32 c-31 -77 -32 -74 38 -96 175 -54 379 -25 423 61 18 35 18
91 0 127 -27 52 -83 75 -220 92 -98 12 -126 22 -126 44 0 24 35 35 112 35 68
0 111 -7 165 -24 19 -6 25 0 42 40 12 26 20 48 19 49 -2 2 -25 10 -52 19 -71
24 -218 30 -286 11z"/>
    <path d="M1084 887 c-2 -7 -3 -111 -2 -232 l3 -220 63 -3 62 -3 0 146 0 145
83 -102 c112 -139 117 -139 214 -21 39 48 80 98 90 111 18 23 18 20 18 -125
l0 -148 63 -3 62 -3 0 236 0 235 -73 0 -72 0 -47 -62 c-109 -147 -133 -177
-138 -178 -3 0 -47 54 -98 120 l-93 120 -65 0 c-43 0 -66 -4 -70 -13z"/>
  </g>
  <g transform="translate(0,134) scale(0.1,-0.1)" fill="url(#cyan)" stroke="none">
    <path d="M2612 688 c-23 -117 -44 -228 -48 -245 l-6 -33 265 0 c297 0 278 -5
292 73 l7 37 -192 0 -192 0 6 23 c3 12 6 30 6 40 0 15 14 17 161 17 l160 0 13
33 c8 17 17 42 20 54 l7 23 -169 2 -168 3 8 33 9 32 183 0 183 0 26 60 26 60
-278 0 -278 0 -41 -212z"/>
    <path d="M3261 850 c-7 -28 -10 -54 -6 -58 4 -4 88 -9 188 -12 100 -3 189 -9
199 -14 32 -15 41 -59 24 -119 -29 -100 -78 -127 -234 -127 -91 0 -92 0 -87
23 3 12 12 52 20 89 8 37 18 74 21 82 5 14 -6 16 -75 16 -75 0 -81 -1 -86 -22
-3 -13 -17 -77 -30 -143 -14 -66 -28 -128 -31 -138 -6 -18 4 -19 213 -15 200
4 223 6 277 27 112 44 176 143 176 270 0 77 -30 127 -95 160 -47 25 -57 26
-255 29 l-206 3 -13 -51z"/>
    <path d="M4100 886 c-155 -34 -244 -141 -245 -293 0 -77 13 -106 66 -146 41
-30 93 -37 301 -37 l196 0 25 108 c14 59 29 124 32 145 l7 37 -145 0 -145 0
-15 -45 -16 -45 75 0 c81 0 87 -6 64 -65 l-10 -27 -119 4 c-151 4 -165 13
-159 101 5 69 27 103 88 135 40 20 58 22 205 22 l161 0 27 55 c15 31 27 58 27
60 0 11 -368 3 -420 -9z"/>
    <path d="M4570 848 c0 -44 -48 -305 -75 -410 l-7 -28 270 0 270 0 16 47 c9 26
16 50 16 55 0 4 -88 8 -196 8 l-196 0 6 23 c3 12 6 30 6 40 0 15 14 17 163 17
l162 0 18 49 c9 27 17 51 17 55 0 3 -74 6 -165 6 -156 0 -165 1 -165 19 0 51
-1 51 200 51 l188 0 15 43 c8 23 18 50 22 60 7 16 -10 17 -279 17 l-286 0 0
-52z"/>
  </g>
</svg>