<svg xmlns="http://www.w3.org/2000/svg" viewBox="0 0 835 237" width="835" height="237">
  <defs>
    <linearGradient id="silver" x1="0" y1="0" x2="0" y2="1">
      <stop offset="0%" stop-color="#E8E8EC"/>
      <stop offset="40%" stop-color="#D0D0D6"/>
      <stop offset="100%" stop-color="#B8B8C0"/>
    </linearGradient>
    <linearGradient id="cyan" x1="0" y1="0" x2="1" y2="0">
      <stop offset="0%" stop-color="#35CCEE"/>
      <stop offset="30%" stop-color="#5CDCF6"/>
      <stop offset="60%" stop-color="#90E8FA"/>
      <stop offset="85%" stop-color="#C8F2FE"/>
      <stop offset="100%" stop-color="#E8F9FF"/>
    </linearGradient>
    <radialGradient id="starRed" cx="50%" cy="50%" r="55%">
      <stop offset="0%" stop-color="#E82828"/>
      <stop offset="60%" stop-color="#D41818"/>
      <stop offset="100%" stop-color="#BC0E0E"/>
    </radialGradient>
    <linearGradient id="subtitle" x1="0" y1="0" x2="0" y2="1">
      <stop offset="0%" stop-color="#D8D8DC"/>
      <stop offset="100%" stop-color="#A8A8B0"/>
    </linearGradient>
  </defs>
  <g transform="translate(0,237) scale(0.1,-0.1)" fill="url(#starRed)" stroke="none">
    <path d="M2971 1865 c-30 -118 -58 -219 -61 -225 -7 -11 -54 -1 -323 65 -60
15 -111 25 -113 22 -4 -4 148 -156 270 -269 l50 -45 -121 -134 c-66 -74 -135
-147 -152 -163 -17 -17 -31 -35 -31 -41 0 -6 95 21 215 62 149 50 217 68 220
60 2 -7 18 -66 35 -132 47 -186 66 -250 75 -250 5 0 33 89 64 198 51 180 58
197 76 193 11 -2 99 -32 195 -65 165 -57 210 -69 210 -55 0 6 -277 304 -293
315 -7 5 142 157 278 282 27 25 47 48 45 51 -3 2 -102 -20 -220 -50 -118 -29
-218 -54 -222 -54 -4 0 -12 17 -18 38 -16 55 -87 321 -100 370 -6 23 -14 42
-18 42 -4 0 -31 -97 -61 -215z"/>
  </g>
  <g transform="translate(0,237) scale(0.1,-0.1)" fill="url(#silver)" stroke="none">
    <path d="M695 1763 c-166 -37 -235 -103 -235 -226 0 -80 62 -145 168 -177 37
-11 126 -27 199 -35 72 -8 143 -19 157 -25 60 -22 47 -80 -22 -100 -89 -24
-297 -6 -401 36 -23 9 -45 14 -48 10 -3 -3 -17 -32 -30 -63 -13 -32 -27 -63
-29 -70 -7 -16 127 -58 235 -74 102 -14 284 -7 356 15 119 36 185 112 185 210
0 62 -24 112 -72 146 -43 31 -160 65 -258 75 -70 7 -174 23 -203 31 -21 7 -39
38 -31 57 18 48 232 57 383 18 46 -12 85 -20 87 -19 2 2 16 31 31 63 15 33 29
63 31 67 5 9 -81 36 -172 53 -72 14 -283 19 -331 8z"/>
    <path d="M1316 1750 c-2 -3 -1 -159 2 -347 l4 -343 99 0 99 0 2 215 3 215 40
-48 c202 -245 216 -260 247 -266 17 -3 38 -6 48 -6 10 0 71 65 150 160 72 88
135 162 138 164 4 2 6 -94 4 -215 l-3 -219 101 0 100 0 0 345 0 345 -113 0
-113 0 -109 -137 c-61 -76 -126 -159 -146 -184 l-35 -48 -61 77 c-33 42 -99
125 -147 184 l-87 107 -110 3 c-61 2 -112 1 -113 -2z"/>
  </g>
  <g transform="translate(0,237) scale(0.1,-0.1)" fill="url(#cyan)" stroke="none">
    <path d="M4045 1803 c-39 -6 -57 -23 -24 -24 22 0 22 -1 4 -9 -11 -5 -73 -9
-137 -9 l-116 -1 -6 -27 c-3 -16 -21 -121 -41 -235 -19 -114 -47 -262 -60
-329 -14 -67 -25 -128 -25 -135 0 -12 70 -14 408 -14 l408 0 23 73 c13 39 26
78 28 85 4 9 -59 12 -295 12 l-299 0 11 58 12 57 241 3 241 2 23 68 c12 37 24
73 27 80 3 9 -50 12 -247 12 -138 0 -251 2 -251 5 0 2 5 27 11 55 l11 50 278
0 278 0 6 23 c3 13 20 54 37 90 l31 67 44 0 c52 0 53 -4 26 -102 l-19 -66 36
-6 c20 -3 144 -6 276 -6 216 0 244 -2 283 -20 32 -14 47 -29 58 -57 33 -78
-12 -221 -85 -270 -54 -36 -100 -44 -259 -41 l-149 3 22 115 c12 63 25 132 29
153 l7 37 -118 0 -119 0 -43 -222 c-25 -123 -46 -231 -49 -241 -5 -18 10 -18
334 -15 320 4 342 5 399 26 171 63 270 194 282 372 10 144 -37 234 -152 291
-66 32 -121 43 -300 56 -49 4 -80 9 -67 11 41 7 22 19 -39 26 -67 7 -925 6
-974 -1z"/>
    <path d="M5966 1744 c-86 -21 -168 -69 -231 -135 -64 -67 -102 -141 -116 -231
-28 -169 38 -288 190 -340 61 -21 82 -23 281 -22 118 0 263 4 322 8 l107 8 11
56 c20 97 71 336 76 355 5 16 -11 17 -230 17 l-235 0 -19 -52 c-11 -29 -23
-61 -27 -70 -7 -17 3 -18 125 -18 l133 0 -7 -32 c-4 -18 -10 -48 -13 -65 l-6
-33 -180 0 c-161 0 -185 2 -223 20 -28 14 -46 32 -55 53 -32 76 6 209 74 261
65 50 107 56 383 56 l252 0 44 90 44 90 -321 -1 c-240 0 -335 -4 -379 -15z"/>
    <path d="M6743 1653 c-7 -60 -35 -221 -62 -360 -28 -138 -51 -256 -51 -262 0
-8 125 -11 429 -11 l429 0 24 78 c14 42 23 80 21 85 -2 4 -144 7 -315 7 -259
0 -309 2 -305 14 3 7 9 34 12 60 l7 46 251 2 251 3 23 60 c13 33 24 66 26 74
2 11 -42 14 -255 15 -141 0 -259 4 -262 7 -4 3 -1 29 6 57 l11 52 296 2 295 3
27 70 c14 39 30 78 34 88 7 16 -18 17 -437 17 l-444 0 -11 -107z"/>
  </g>
  <g transform="translate(0,237) scale(0.1,-0.1)" fill="url(#subtitle)" stroke="none">
    <path d="M1770 503 c-49 -18 -66 -75 -32 -106 10 -10 40 -21 66 -26 53 -10 61
-15 51 -32 -6 -8 -27 -10 -71 -6 -51 5 -63 3 -68 -10 -4 -9 -5 -17 -4 -18 40
-32 143 -34 182 -4 50 40 23 101 -51 113 -47 9 -68 20 -59 35 9 14 61 14 86 1
15 -8 21 -6 30 9 14 27 14 28 -21 40 -33 12 -83 13 -109 4z"/>
    <path d="M2057 504 c-4 -4 -7 -56 -7 -116 l0 -108 30 0 c26 0 30 3 30 29 0 27
3 29 53 34 60 7 97 40 97 86 0 46 -34 68 -121 75 -41 4 -78 3 -82 0z m128 -58
c11 -8 16 -20 12 -29 -7 -19 -49 -32 -72 -23 -15 5 -21 47 -8 59 11 12 48 8
68 -7z"/>
    <path d="M2442 493 c-18 -9 -40 -29 -48 -44 -66 -129 112 -234 218 -129 22 23
28 37 28 73 0 93 -105 146 -198 100z m118 -53 c27 -27 26 -75 -2 -94 -49 -34
-118 -8 -118 45 0 38 32 69 70 69 17 0 39 -9 50 -20z"/>
    <path d="M2823 503 l-43 -4 0 -110 0 -109 30 0 c28 0 30 3 30 35 0 47 30 47
66 0 21 -28 33 -35 61 -35 l35 0 -30 38 -30 37 24 28 c30 35 30 59 2 91 -25
27 -71 36 -145 29z m92 -57 c31 -23 12 -46 -38 -46 -43 0 -43 1 -39 30 4 25 9
30 31 30 15 0 36 -6 46 -14z"/>
    <path d="M3473 495 c-36 -15 -51 -52 -34 -83 10 -19 39 -32 104 -46 52 -12 24
-31 -44 -31 -57 0 -64 -2 -64 -20 0 -14 11 -22 42 -31 76 -22 153 11 153 67 0
34 -26 54 -88 68 -49 11 -57 15 -47 30 8 14 60 14 85 1 15 -8 21 -6 30 9 14
27 14 28 -21 40 -42 14 -77 13 -116 -4z"/>
    <path d="M3977 503 c-4 -3 -7 -55 -7 -115 l0 -108 30 0 c29 0 29 1 32 63 l3
62 30 -47 c17 -27 35 -48 41 -48 7 0 26 21 43 48 l31 47 0 -62 0 -63 30 0 31
0 -3 113 -3 112 -25 0 c-19 0 -34 -13 -63 -58 -21 -31 -42 -55 -47 -52 -5 3
-23 30 -40 60 -24 41 -37 55 -54 55 -12 0 -26 -3 -29 -7z"/>
    <path d="M4433 495 c-56 -24 -78 -96 -48 -155 22 -43 53 -60 108 -60 63 0 105
23 124 67 44 107 -69 198 -184 148z m117 -57 c41 -45 14 -108 -47 -108 -45 0
-73 24 -73 62 0 61 78 91 120 46z"/>
    <path d="M4810 492 c-45 -22 -62 -56 -57 -110 8 -77 80 -123 159 -102 49 14
67 36 46 56 -12 13 -20 14 -36 5 -51 -27 -112 0 -112 50 0 56 61 88 106 55 17
-13 21 -12 37 1 24 22 22 28 -17 47 -44 21 -82 20 -126 -2z"/>
    <path d="M5110 395 l0 -116 28 3 c22 2 28 8 30 35 5 55 25 58 62 8 28 -38 39
-45 67 -45 18 0 33 3 33 6 0 4 -20 31 -45 60 -25 28 -45 57 -45 63 0 5 20 27
45 48 25 20 45 40 45 44 0 4 -14 7 -30 7 -22 -1 -44 -14 -80 -50 l-49 -48 -3
47 c-3 44 -5 48 -30 51 l-28 3 0 -116z"/>
    <path d="M5460 396 l0 -116 95 0 c95 0 95 0 95 25 0 24 -2 25 -65 25 -58 0
-65 2 -65 20 0 18 7 20 55 20 52 0 55 1 55 25 0 24 -3 25 -55 25 -48 0 -55 2
-55 20 0 18 7 20 66 20 62 0 65 1 62 23 -3 21 -8 22 -95 25 l-93 4 0 -116z"/>
    <path d="M5794 501 c-2 -2 -4 -53 -4 -113 l0 -108 30 0 c28 0 30 3 30 35 0 24
5 35 15 35 14 0 65 -48 65 -62 0 -5 16 -8 35 -8 19 0 35 3 35 6 0 3 -12 21
-26 40 -15 19 -21 34 -15 34 7 0 19 16 26 35 17 40 7 78 -25 95 -20 11 -157
20 -166 11z m120 -47 c9 -3 16 -17 16 -30 0 -21 -4 -24 -40 -24 -38 0 -40 2
-40 30 0 25 4 30 24 30 13 0 31 -3 40 -6z"/>
    <path d="M6110 500 c0 -3 20 -34 45 -68 38 -51 45 -69 45 -107 0 -43 1 -45 30
-45 29 0 30 1 30 48 0 40 7 56 46 107 44 59 45 60 22 66 -18 5 -30 -1 -55 -30
-18 -20 -33 -39 -33 -43 0 -19 -17 -5 -42 35 -23 36 -33 44 -58 44 -16 0 -30
-3 -30 -7z"/>
    <path d="M3100 481 c0 -16 8 -20 38 -23 l37 -3 3 -87 3 -88 29 0 30 0 0 90 0
90 35 0 c28 0 35 4 35 20 0 19 -7 20 -105 20 -97 0 -105 -1 -105 -19z"/>
  </g>
</svg>